<svg xmlns="http://www.w3.org/2000/svg" xmlns:xlink="http://www.w3.org/1999/xlink" version="1.1" id="Layer_1" x="0px" y="0px" viewBox="0 0 1657.3 422" style="enable-background:new 0 0 1657.3 422;" xml:space="preserve"><script xmlns=""/>
<style type="text/css">
	.st0{fill:#FFFFFF;}
</style>
<g>
	<g>
		<path class="st0" d="M218.3,243.1l-20.5,56c-0.6,1.5-0.6,3.3,0,4.8l35.1,96.4l40.7-23.5l-48.8-133.8    C223.7,240,219.4,240,218.3,243.1L218.3,243.1z"/>
		<path class="st0" d="M259.2,148.8c-1.1-3.1-5.4-3.1-6.6,0l-20.5,56c-0.6,1.6-0.6,3.3,0,4.8l57.6,157.9l40.7-23.5L259.2,148.8    L259.2,148.8z"/>
	</g>
	<path class="st0" d="M187,26.1c1,0,2,0.3,2.9,0.8l155,89.5c1.8,1,2.9,2.9,2.9,5v179c0,2.1-1.1,4-2.9,5l-155,89.6   c-0.9,0.5-1.9,0.8-2.9,0.8s-2-0.3-2.9-0.8l-155-89.5c-1.8-1-2.9-2.9-2.9-5V121.4c0-2.1,1.1-4,2.9-5l155-89.5   C185,26.4,186,26.1,187,26.1 M187,0c-5.5,0-11.1,1.5-16,4.3L16,93.8c-9.8,5.7-16,16.2-16,27.6v179c0,11.4,6.1,22,16,27.7l155,89.5   c4.9,2.9,10.4,4.3,16,4.3s11.1-1.5,16-4.3l155-89.5c9.9-5.7,16-16.2,16-27.7v-179c0-11.4-6.1-22-16-27.7L203,4.3   C198,1.5,192.5,0,187,0L187,0L187,0z"/>
	<g>
		<path class="st0" d="M173.9,108.7h-39.3c-2.9,0-5.6,1.8-6.6,4.6l-84.2,231l40.7,23.5l92.8-254.4    C178.1,111.1,176.4,108.7,173.9,108.7L173.9,108.7z"/>
		<path class="st0" d="M242.7,108.7h-39.3c-2.9,0-5.6,1.8-6.6,4.6L100.7,377l40.7,23.5L246,113.4    C246.9,111.1,245.1,108.7,242.7,108.7z"/>
	</g>
</g>
<g>
	<path class="st0" d="M541.3,156.8c3.9,0,7.2,0.8,9.9,2.4s5.3,4.8,7.9,9.4l51.3,93.1c0.5,1,0.6,1.9,0.3,2.6c-0.3,0.7-1,1-2.2,1   h-19.7c-1.7,0-2.9-0.7-3.5-2l-11-19.9h-72.8l-10.7,19.9c-0.7,1.4-1.9,2-3.5,2h-20.1c-1.4,0-2.2-0.4-2.4-1s-0.2-1.5,0.4-2.6   l50.8-93.1c2.6-4.7,5.1-7.8,7.6-9.4c2.5-1.6,5.3-2.4,8.6-2.4H541.3L541.3,156.8z M511.2,225.2h53.3l-24.6-45.4   c-0.4-0.7-1-1.1-1.7-1.1h-1c-0.7,0-1.3,0.4-1.7,1.1L511.2,225.2L511.2,225.2z"/>
	<path class="st0" d="M723.1,156.8c11.9,0,20.4,2.7,25.5,8s7.8,13.3,7.8,23.8v8.8c0,8.9-1.8,15.9-5.4,21.1s-9.5,8.5-17.7,9.9   l26.5,32.8c0.5,0.5,0.7,1.3,0.4,2.3c-0.2,1-1,1.5-2.5,1.5h-19.9c-1.4,0-2.2-0.2-2.8-0.4c-0.5-0.4-1-0.9-1.5-1.5l-24.5-32.2h-50.1   v30.8c0,2.2-1.1,3.4-3.4,3.4h-16.8c-2.4,0-3.5-1.1-3.5-3.4V161.4c0-3.1,1.5-4.7,4.7-4.7L723.1,156.8L723.1,156.8z M659,212.1h59.3   c5.3,0,9-1.1,11.1-3.4c2.2-2.2,3.3-5.7,3.3-10.4v-6.5c0-4.7-1.1-8.1-3.3-10.4c-2.2-2.2-5.9-3.4-11.1-3.4h-57.3c-1.4,0-2,0.6-2,1.9   L659,212.1L659,212.1z"/>
	<path class="st0" d="M886,156.8c10.6,0,18.2,2.2,22.7,6.4s6.7,10.6,6.7,19.2v7.4c0,8.6-3.3,15.2-9.9,19.7   c7.1,4.1,10.7,10.8,10.7,19.9v9c0,4.1-0.4,7.9-1.4,11.1c-1,3.3-2.4,6.1-4.6,8.5c-2.2,2.3-4.9,4.1-8.5,5.4c-3.5,1.2-7.8,1.9-13,1.9   h-92c-3.1,0-4.7-1.5-4.7-4.7v-99.1c0-3.1,1.5-4.7,4.7-4.7L886,156.8L886,156.8z M815.8,201.8h63.5c5.2,0,8.6-0.8,10.5-2.3   s2.8-3.8,2.8-6.8v-5.3c0-3.2-0.9-5.5-2.7-7.1c-1.8-1.5-4.8-2.2-8.7-2.2h-63.4c-1.4,0-2,0.7-2,2L815.8,201.8L815.8,201.8   L815.8,201.8z M815.8,218.7v23.1c0,1.4,0.7,2,2,2h63.5c4.1,0,7.1-0.8,8.8-2.2s2.7-3.9,2.7-7.2v-5.9c0-3.2-1-5.6-2.8-7.2   c-1.9-1.6-5.4-2.5-10.6-2.5L815.8,218.7L815.8,218.7z"/>
	<path class="st0" d="M973.9,156.8c2.2,0,3.4,1.1,3.4,3.4v101.6c0,2.2-1.1,3.4-3.4,3.4h-16.8c-2.4,0-3.5-1.1-3.5-3.4V160.2   c0-2.2,1.2-3.4,3.5-3.4L973.9,156.8z"/>
	<path class="st0" d="M1136.2,156.8c2.4,0,3.5,1.1,3.5,3.4v15.2c0,2.4-1.2,3.5-3.5,3.5h-48.6v82.9c0,2.2-1.1,3.4-3.4,3.4h-16.9   c-2.2,0-3.4-1.1-3.4-3.4v-82.9h-48.6c-2.4,0-3.5-1.2-3.5-3.5v-15.2c0-2.2,1.2-3.4,3.5-3.4L1136.2,156.8L1136.2,156.8z"/>
	<path class="st0" d="M1258.7,156.8c11.9,0,20.4,2.7,25.6,8s7.8,13.3,7.8,23.8v8.8c0,8.9-1.8,15.9-5.4,21.1   c-3.6,5.2-9.5,8.5-17.7,9.9l26.5,32.8c0.5,0.5,0.7,1.3,0.4,2.3c-0.2,1-1,1.5-2.5,1.5h-19.9c-1.4,0-2.2-0.2-2.8-0.4   c-0.5-0.4-1-0.9-1.6-1.5l-24.5-32.2h-50.1v30.8c0,2.2-1.1,3.4-3.4,3.4h-16.8c-2.4,0-3.5-1.1-3.5-3.4V161.4c0-3.1,1.6-4.7,4.7-4.7   L1258.7,156.8L1258.7,156.8z M1194.6,212.1h59.3c5.3,0,9-1.1,11.1-3.4c2.2-2.2,3.3-5.7,3.3-10.4v-6.5c0-4.7-1.1-8.1-3.3-10.4   c-2.2-2.2-5.9-3.4-11.1-3.4h-57.3c-1.4,0-2,0.6-2,1.9L1194.6,212.1L1194.6,212.1L1194.6,212.1z"/>
	<path class="st0" d="M1345.8,156.8c2.2,0,3.4,1.1,3.4,3.4v61.8c0,4.1,0.3,7.6,1,10.3c0.7,2.8,1.8,4.9,3.4,6.5   c1.6,1.6,3.6,2.8,6.3,3.4c2.7,0.7,6,1,10,1h42.9c4.1,0,7.3-0.4,10-1c2.7-0.7,4.8-1.8,6.3-3.4c1.6-1.6,2.7-3.8,3.3-6.5   c0.6-2.8,0.9-6.1,0.9-10.3v-61.8c0-2.2,1.1-3.4,3.4-3.4h16.9c2.2,0,3.4,1.1,3.4,3.4v64.1c0,7.4-0.8,13.7-2.3,19   c-1.6,5.2-4.1,9.4-7.5,12.7c-3.4,3.3-7.9,5.6-13.5,7.1c-5.5,1.5-12.2,2.2-20,2.2H1369c-7.8,0-14.5-0.7-19.9-2.2s-9.9-3.8-13.4-7.1   c-3.4-3.3-6-7.5-7.6-12.7c-1.6-5.2-2.4-11.6-2.4-19v-64.1c0-2.2,1.2-3.4,3.5-3.4H1345.8L1345.8,156.8z"/>
	<path class="st0" d="M1523.5,156.8c2.2,0,4.2,0.2,5.9,0.4c1.6,0.4,3.1,0.9,4.3,1.8c1.2,0.9,2.3,2.1,3.4,3.5c0.9,1.5,2,3.4,3,6   l32.2,74.3c0.4,0.9,1.1,1.4,2.2,1.4h1.9c1,0,1.7-0.4,2.2-1.4l32.2-74.3c1-2.5,2.1-4.5,3-6s2.1-2.7,3.4-3.5c1.2-0.9,2.7-1.5,4.2-1.8   c1.6-0.4,3.5-0.4,5.8-0.4h16.6c5.3,0,9,1.2,10.9,3.6s2.8,6.6,2.8,12.4v88.9c0,2.2-1.2,3.4-3.5,3.4H1638c-2.2,0-3.4-1.1-3.4-3.4   v-80.9c0-1-0.4-1.6-1.2-1.6h-1.4c-1,0-1.7,0.4-2,1.2l-31.2,69.4c-1.2,2.8-2.5,5.2-3.8,7.1c-1.3,1.9-2.7,3.5-4.1,4.8   c-1.5,1.2-3.2,2.2-5.1,2.7s-4.1,0.8-6.7,0.8h-7.4c-2.6,0-4.8-0.3-6.7-0.8s-3.6-1.4-5.1-2.7c-1.5-1.2-2.9-2.9-4.1-4.8   c-1.3-1.9-2.6-4.2-3.8-7.1l-31.2-69.4c-0.3-0.9-0.9-1.2-2-1.2h-1.4c-0.9,0-1.2,0.5-1.2,1.6v80.9c0,2.2-1.1,3.4-3.4,3.4h-15.8   c-2.4,0-3.5-1.1-3.5-3.4v-88.9c0-5.9,0.9-10,2.8-12.4c1.9-2.4,5.5-3.6,11-3.6L1523.5,156.8L1523.5,156.8z"/>
</g>
</svg>