<svg width="56" height="69" viewBox="0 0 56 69" fill="none" xmlns="http://www.w3.org/2000/svg">
<path d="M37.0029 30.069C41.2847 29.6231 45.403 28.9016 49.5376 28.8367C53.7377 28.7719 56.377 30.5554 55.6987 33.7576C55.5271 34.5683 55.1022 35.3871 54.612 36.0762C48.4427 44.6938 42.2489 53.3033 36.0306 61.8885C34.478 64.0287 32.999 66.2662 31.1278 68.1064C29.4527 69.7602 28.2107 68.982 27.0749 66.8904C25.3508 63.7125 23.4469 60.5103 21.02 57.8675C14.6546 50.9361 7.90516 44.3452 1.45805 37.4868C0.591896 36.5626 -0.0373001 34.7304 0.273209 33.6117C0.551033 32.6064 2.2098 31.4553 3.38646 31.3013C8.29738 30.6689 13.2491 30.3852 18.6095 29.9393C18.7729 23.8024 19.0507 17.7952 19.0017 11.788C18.9935 10.4666 17.6208 9.21812 17.2367 7.83184C16.8445 6.42935 16.2398 4.30534 16.9099 3.56762C17.9068 2.48129 19.9251 2.0111 21.5511 1.8976C24.5091 1.68682 27.4508 2.98392 30.3025 0.527534C32.5905 -1.44244 36.9621 2.46508 36.9376 6.29963C36.8967 13.7093 36.864 21.1271 36.8314 28.5368C36.8314 29.007 36.9294 29.4772 36.9866 30.069H37.0029ZM25.743 9.89097C25.743 14.1065 25.8819 18.1438 25.7021 22.1648C25.5223 26.1047 25.1873 30.0447 24.599 33.9441C24.2722 36.0681 22.7523 37.3246 20.3254 37.3165C17.8005 37.3084 15.2674 37.5273 12.1542 37.6814C17.9803 44.2885 23.3815 50.4253 28.9543 56.7487C34.5516 49.8011 39.7975 43.2832 45.4929 36.2059C42.9598 36.8463 41.0559 37.2922 39.1683 37.8029C34.0858 39.1811 31.7325 38.7028 30.3924 35.5087C29.7305 33.936 29.5998 32.0389 29.657 30.3041C29.8449 24.6698 30.3025 19.0437 30.5068 13.4094C30.6539 9.34783 30.2453 9.0965 25.7348 9.89097H25.743Z" fill="#527BFF"/>
</svg>
