<svg width="150" height="150" viewBox="0 0 150 150" fill="none" xmlns="http://www.w3.org/2000/svg">
<circle cx="75" cy="75" r="75" fill="url(#paint0_radial_493_586)"/>
<path d="M56.25 118.75C59.7018 118.75 62.5 115.952 62.5 112.5C62.5 109.048 59.7018 106.25 56.25 106.25C52.7982 106.25 50 109.048 50 112.5C50 115.952 52.7982 118.75 56.25 118.75Z" fill="white"/>
<path d="M100 118.75C103.452 118.75 106.25 115.952 106.25 112.5C106.25 109.048 103.452 106.25 100 106.25C96.5482 106.25 93.75 109.048 93.75 112.5C93.75 115.952 96.5482 118.75 100 118.75Z" fill="white"/>
<path d="M40.5644 33.7622C40.4227 33.0538 40.04 32.4163 39.4813 31.9583C38.9226 31.5003 38.2224 31.25 37.5 31.25H25V37.5H34.9375L46.9356 97.4878C47.0773 98.1962 47.46 98.8337 48.0187 99.2917C48.5774 99.7497 49.2776 100 50 100H106.25V93.75H52.5625L50.0625 81.25H106.25C106.961 81.25 107.651 81.0076 108.205 80.5627C108.76 80.1179 109.146 79.4972 109.301 78.8031L116.389 46.875H109.991L103.744 75H48.8125L40.5644 33.7622Z" fill="white"/>
<path d="M92.4563 45.5812L81.25 56.7875V31.25H75V56.7875L63.7937 45.5812L59.375 50L78.125 68.75L96.875 50L92.4563 45.5812Z" fill="white"/>
<defs>
<radialGradient id="paint0_radial_493_586" cx="0" cy="0" r="1" gradientUnits="userSpaceOnUse" gradientTransform="translate(75 75) rotate(90) scale(75)">
<stop stop-color="#2B4D7E" stop-opacity="0.5"/>
<stop offset="1" stop-color="#2B4D7E" stop-opacity="0"/>
</radialGradient>
</defs>
</svg>
