<svg width="70" height="62" viewBox="0 0 70 62" fill="none" xmlns="http://www.w3.org/2000/svg">
<path d="M25 30H10V35H25V30Z" fill="white"/>
<path d="M35 20H10V25H35V20Z" fill="white"/>
<path d="M35 10H10V15H35V10Z" fill="white"/>
<path d="M30 55H5V5H65V30H70V5C70 3.67392 69.4732 2.40215 68.5355 1.46447C67.5979 0.526784 66.3261 0 65 0H5C3.67392 0 2.40215 0.526784 1.46447 1.46447C0.526784 2.40215 0 3.67392 0 5V55C0 56.3261 0.526784 57.5979 1.46447 58.5355C2.40215 59.4732 3.67392 60 5 60H30V55Z" fill="white"/>
<path d="M50 53.975L43.525 47.5L40 51.025L50 61.025L70 41.025L66.475 37.5L50 53.975Z" fill="white"/>
</svg>
