<svg width="406" height="63" viewBox="0 0 406 63" fill="none" xmlns="http://www.w3.org/2000/svg">
<path d="M25 30.9875H10V35.9875H25V30.9875Z" fill="url(#paint0_linear_68_2604)"/>
<path d="M35 20.9875H10V25.9875H35V20.9875Z" fill="url(#paint1_linear_68_2604)"/>
<path d="M35 10.9875H10V15.9875H35V10.9875Z" fill="url(#paint2_linear_68_2604)"/>
<path d="M30 55.9875H5V5.98755H65V30.9875H70V5.98755C70 4.66147 69.4732 3.3897 68.5355 2.45201C67.5979 1.51433 66.3261 0.987549 65 0.987549H5C3.67392 0.987549 2.40215 1.51433 1.46447 2.45201C0.526784 3.3897 0 4.66147 0 5.98755V55.9875C0 57.3136 0.526784 58.5854 1.46447 59.5231C2.40215 60.4608 3.67392 60.9875 5 60.9875H30V55.9875Z" fill="url(#paint3_linear_68_2604)"/>
<path d="M50 54.9625L43.525 48.4875L40 52.0125L50 62.0125L70 42.0125L66.475 38.4875L50 54.9625Z" fill="url(#paint4_linear_68_2604)"/>
<path d="M87.9297 36V7.36719H93.7109V18.6367H105.039V7.36719H110.82V36H105.039V23.4805H93.7109V36H87.9297ZM115.508 25.3359C115.508 23.513 115.957 21.7487 116.855 20.043C117.754 18.3372 119.023 17.0352 120.664 16.1367C122.318 15.2383 124.16 14.7891 126.191 14.7891C129.329 14.7891 131.901 15.8112 133.906 17.8555C135.911 19.8867 136.914 22.4583 136.914 25.5703C136.914 28.7083 135.898 31.3125 133.867 33.3828C131.849 35.4401 129.303 36.4688 126.23 36.4688C124.329 36.4688 122.513 36.0391 120.781 35.1797C119.062 34.3203 117.754 33.0638 116.855 31.4102C115.957 29.7435 115.508 27.7188 115.508 25.3359ZM121.133 25.6289C121.133 27.6862 121.621 29.2617 122.598 30.3555C123.574 31.4492 124.779 31.9961 126.211 31.9961C127.643 31.9961 128.841 31.4492 129.805 30.3555C130.781 29.2617 131.27 27.6732 131.27 25.5898C131.27 23.5586 130.781 21.9961 129.805 20.9023C128.841 19.8086 127.643 19.2617 126.211 19.2617C124.779 19.2617 123.574 19.8086 122.598 20.9023C121.621 21.9961 121.133 23.5716 121.133 25.6289ZM160.098 36H154.609V25.4141C154.609 23.1745 154.492 21.7292 154.258 21.0781C154.023 20.4141 153.639 19.8997 153.105 19.5352C152.585 19.1706 151.953 18.9883 151.211 18.9883C150.26 18.9883 149.408 19.2487 148.652 19.7695C147.897 20.2904 147.376 20.9805 147.09 21.8398C146.816 22.6992 146.68 24.2878 146.68 26.6055V36H141.191V15.2578H146.289V18.3047C148.099 15.9609 150.378 14.7891 153.125 14.7891C154.336 14.7891 155.443 15.0104 156.445 15.4531C157.448 15.8828 158.203 16.4362 158.711 17.1133C159.232 17.7904 159.59 18.5586 159.785 19.418C159.993 20.2773 160.098 21.5078 160.098 23.1094V36ZM177.695 29.3984L183.164 30.3164C182.461 32.3216 181.348 33.8516 179.824 34.9062C178.314 35.9479 176.419 36.4688 174.141 36.4688C170.534 36.4688 167.865 35.2904 166.133 32.9336C164.766 31.0456 164.082 28.6628 164.082 25.7852C164.082 22.3477 164.98 19.6589 166.777 17.7188C168.574 15.7656 170.846 14.7891 173.594 14.7891C176.68 14.7891 179.115 15.8112 180.898 17.8555C182.682 19.8867 183.535 23.0052 183.457 27.2109H169.707C169.746 28.8385 170.189 30.1081 171.035 31.0195C171.882 31.918 172.936 32.3672 174.199 32.3672C175.059 32.3672 175.781 32.1328 176.367 31.6641C176.953 31.1953 177.396 30.4401 177.695 29.3984ZM178.008 23.8516C177.969 22.263 177.559 21.0586 176.777 20.2383C175.996 19.4049 175.046 18.9883 173.926 18.9883C172.728 18.9883 171.738 19.4245 170.957 20.2969C170.176 21.1693 169.792 22.3542 169.805 23.8516H178.008ZM186.016 30.082L191.523 29.2422C191.758 30.3099 192.233 31.1237 192.949 31.6836C193.665 32.2305 194.668 32.5039 195.957 32.5039C197.376 32.5039 198.444 32.2435 199.16 31.7227C199.642 31.3581 199.883 30.8698 199.883 30.2578C199.883 29.8411 199.753 29.4961 199.492 29.2227C199.219 28.9622 198.607 28.7214 197.656 28.5C193.229 27.5234 190.423 26.6315 189.238 25.8242C187.598 24.7044 186.777 23.1484 186.777 21.1562C186.777 19.3594 187.487 17.849 188.906 16.625C190.326 15.401 192.526 14.7891 195.508 14.7891C198.346 14.7891 200.456 15.2513 201.836 16.1758C203.216 17.1003 204.167 18.4674 204.688 20.2773L199.512 21.2344C199.29 20.4271 198.867 19.8086 198.242 19.3789C197.63 18.9492 196.751 18.7344 195.605 18.7344C194.16 18.7344 193.125 18.9362 192.5 19.3398C192.083 19.6263 191.875 19.9974 191.875 20.4531C191.875 20.8438 192.057 21.1758 192.422 21.4492C192.917 21.8138 194.622 22.3281 197.539 22.9922C200.469 23.6562 202.513 24.4701 203.672 25.4336C204.818 26.4102 205.391 27.7708 205.391 29.5156C205.391 31.4167 204.596 33.0508 203.008 34.418C201.419 35.7852 199.069 36.4688 195.957 36.4688C193.132 36.4688 190.892 35.8958 189.238 34.75C187.598 33.6042 186.523 32.0482 186.016 30.082ZM219.727 15.2578V19.6328H215.977V27.9922C215.977 29.6849 216.009 30.6745 216.074 30.9609C216.152 31.2344 216.315 31.4622 216.562 31.6445C216.823 31.8268 217.135 31.918 217.5 31.918C218.008 31.918 218.743 31.7422 219.707 31.3906L220.176 35.6484C218.9 36.1953 217.454 36.4688 215.84 36.4688C214.85 36.4688 213.958 36.306 213.164 35.9805C212.37 35.6419 211.784 35.2122 211.406 34.6914C211.042 34.1576 210.788 33.4414 210.645 32.543C210.527 31.9049 210.469 30.6159 210.469 28.6758V19.6328H207.949V15.2578H210.469V11.1367L215.977 7.93359V15.2578H219.727ZM259.043 36H252.754L250.254 29.4961H238.809L236.445 36H230.312L241.465 7.36719H247.578L259.043 36ZM248.398 24.6719L244.453 14.0469L240.586 24.6719H248.398ZM275.742 36V32.8945C274.987 34.0013 273.991 34.8737 272.754 35.5117C271.53 36.1497 270.234 36.4688 268.867 36.4688C267.474 36.4688 266.224 36.1628 265.117 35.5508C264.01 34.9388 263.21 34.0794 262.715 32.9727C262.22 31.8659 261.973 30.3359 261.973 28.3828V15.2578H267.461V24.7891C267.461 27.7057 267.559 29.4961 267.754 30.1602C267.962 30.8112 268.333 31.332 268.867 31.7227C269.401 32.1003 270.078 32.2891 270.898 32.2891C271.836 32.2891 272.676 32.0352 273.418 31.5273C274.16 31.0065 274.668 30.3685 274.941 29.6133C275.215 28.8451 275.352 26.9766 275.352 24.0078V15.2578H280.84V36H275.742ZM304.629 21.3906L299.219 22.3672C299.036 21.2865 298.62 20.4727 297.969 19.9258C297.331 19.3789 296.497 19.1055 295.469 19.1055C294.102 19.1055 293.008 19.5807 292.188 20.5312C291.38 21.4688 290.977 23.0443 290.977 25.2578C290.977 27.7188 291.387 29.457 292.207 30.4727C293.04 31.4883 294.154 31.9961 295.547 31.9961C296.589 31.9961 297.441 31.7031 298.105 31.1172C298.77 30.5182 299.238 29.4961 299.512 28.0508L304.902 28.9688C304.342 31.4427 303.268 33.3112 301.68 34.5742C300.091 35.8372 297.962 36.4688 295.293 36.4688C292.259 36.4688 289.837 35.5117 288.027 33.5977C286.23 31.6836 285.332 29.0339 285.332 25.6484C285.332 22.224 286.237 19.5612 288.047 17.6602C289.857 15.7461 292.305 14.7891 295.391 14.7891C297.917 14.7891 299.922 15.3359 301.406 16.4297C302.904 17.5104 303.978 19.1641 304.629 21.3906ZM318.32 15.2578V19.6328H314.57V27.9922C314.57 29.6849 314.603 30.6745 314.668 30.9609C314.746 31.2344 314.909 31.4622 315.156 31.6445C315.417 31.8268 315.729 31.918 316.094 31.918C316.602 31.918 317.337 31.7422 318.301 31.3906L318.77 35.6484C317.493 36.1953 316.048 36.4688 314.434 36.4688C313.444 36.4688 312.552 36.306 311.758 35.9805C310.964 35.6419 310.378 35.2122 310 34.6914C309.635 34.1576 309.382 33.4414 309.238 32.543C309.121 31.9049 309.062 30.6159 309.062 28.6758V19.6328H306.543V15.2578H309.062V11.1367L314.57 7.93359V15.2578H318.32ZM322.129 12.4453V7.36719H327.617V12.4453H322.129ZM322.129 36V15.2578H327.617V36H322.129ZM331.992 25.3359C331.992 23.513 332.441 21.7487 333.34 20.043C334.238 18.3372 335.508 17.0352 337.148 16.1367C338.802 15.2383 340.645 14.7891 342.676 14.7891C345.814 14.7891 348.385 15.8112 350.391 17.8555C352.396 19.8867 353.398 22.4583 353.398 25.5703C353.398 28.7083 352.383 31.3125 350.352 33.3828C348.333 35.4401 345.788 36.4688 342.715 36.4688C340.814 36.4688 338.997 36.0391 337.266 35.1797C335.547 34.3203 334.238 33.0638 333.34 31.4102C332.441 29.7435 331.992 27.7188 331.992 25.3359ZM337.617 25.6289C337.617 27.6862 338.105 29.2617 339.082 30.3555C340.059 31.4492 341.263 31.9961 342.695 31.9961C344.128 31.9961 345.326 31.4492 346.289 30.3555C347.266 29.2617 347.754 27.6732 347.754 25.5898C347.754 23.5586 347.266 21.9961 346.289 20.9023C345.326 19.8086 344.128 19.2617 342.695 19.2617C341.263 19.2617 340.059 19.8086 339.082 20.9023C338.105 21.9961 337.617 23.5716 337.617 25.6289ZM376.582 36H371.094V25.4141C371.094 23.1745 370.977 21.7292 370.742 21.0781C370.508 20.4141 370.124 19.8997 369.59 19.5352C369.069 19.1706 368.438 18.9883 367.695 18.9883C366.745 18.9883 365.892 19.2487 365.137 19.7695C364.382 20.2904 363.861 20.9805 363.574 21.8398C363.301 22.6992 363.164 24.2878 363.164 26.6055V36H357.676V15.2578H362.773V18.3047C364.583 15.9609 366.862 14.7891 369.609 14.7891C370.82 14.7891 371.927 15.0104 372.93 15.4531C373.932 15.8828 374.688 16.4362 375.195 17.1133C375.716 17.7904 376.074 18.5586 376.27 19.418C376.478 20.2773 376.582 21.5078 376.582 23.1094V36ZM380.234 30.082L385.742 29.2422C385.977 30.3099 386.452 31.1237 387.168 31.6836C387.884 32.2305 388.887 32.5039 390.176 32.5039C391.595 32.5039 392.663 32.2435 393.379 31.7227C393.861 31.3581 394.102 30.8698 394.102 30.2578C394.102 29.8411 393.971 29.4961 393.711 29.2227C393.438 28.9622 392.826 28.7214 391.875 28.5C387.448 27.5234 384.642 26.6315 383.457 25.8242C381.816 24.7044 380.996 23.1484 380.996 21.1562C380.996 19.3594 381.706 17.849 383.125 16.625C384.544 15.401 386.745 14.7891 389.727 14.7891C392.565 14.7891 394.674 15.2513 396.055 16.1758C397.435 17.1003 398.385 18.4674 398.906 20.2773L393.73 21.2344C393.509 20.4271 393.086 19.8086 392.461 19.3789C391.849 18.9492 390.97 18.7344 389.824 18.7344C388.379 18.7344 387.344 18.9362 386.719 19.3398C386.302 19.6263 386.094 19.9974 386.094 20.4531C386.094 20.8438 386.276 21.1758 386.641 21.4492C387.135 21.8138 388.841 22.3281 391.758 22.9922C394.688 23.6562 396.732 24.4701 397.891 25.4336C399.036 26.4102 399.609 27.7708 399.609 29.5156C399.609 31.4167 398.815 33.0508 397.227 34.418C395.638 35.7852 393.288 36.4688 390.176 36.4688C387.35 36.4688 385.111 35.8958 383.457 34.75C381.816 33.6042 380.742 32.0482 380.234 30.082Z" fill="url(#paint5_linear_68_2604)"/>
<path d="M97.2168 58V51.6973H96.1299V50.7402H97.2168V49.9678C97.2168 49.4801 97.2601 49.1178 97.3467 48.8809C97.4652 48.5618 97.6725 48.3044 97.9688 48.1084C98.2695 47.9079 98.6888 47.8076 99.2266 47.8076C99.5729 47.8076 99.9557 47.8486 100.375 47.9307L100.19 49.0039C99.9352 48.9583 99.6937 48.9355 99.4658 48.9355C99.0921 48.9355 98.8278 49.0153 98.6729 49.1748C98.5179 49.3343 98.4404 49.6328 98.4404 50.0703V50.7402H99.8555V51.6973H98.4404V58H97.2168ZM105.557 57.1045C105.101 57.4919 104.661 57.7653 104.237 57.9248C103.818 58.0843 103.367 58.1641 102.884 58.1641C102.086 58.1641 101.473 57.9704 101.045 57.583C100.617 57.1911 100.402 56.6921 100.402 56.0859C100.402 55.7305 100.482 55.4069 100.642 55.1152C100.806 54.819 101.018 54.582 101.277 54.4043C101.542 54.2266 101.838 54.0921 102.166 54.001C102.408 53.9372 102.772 53.8757 103.26 53.8164C104.253 53.6979 104.985 53.5566 105.454 53.3926C105.459 53.224 105.461 53.1169 105.461 53.0713C105.461 52.57 105.345 52.2168 105.112 52.0117C104.798 51.7337 104.331 51.5947 103.711 51.5947C103.132 51.5947 102.704 51.6973 102.426 51.9023C102.152 52.1029 101.95 52.4606 101.817 52.9756L100.614 52.8115C100.724 52.2965 100.904 51.8818 101.154 51.5674C101.405 51.2484 101.767 51.0046 102.241 50.8359C102.715 50.6628 103.264 50.5762 103.889 50.5762C104.508 50.5762 105.012 50.6491 105.399 50.7949C105.787 50.9408 106.072 51.1253 106.254 51.3486C106.436 51.5674 106.564 51.8454 106.637 52.1826C106.678 52.3923 106.698 52.7705 106.698 53.3174V54.958C106.698 56.1019 106.723 56.8265 106.773 57.1318C106.828 57.4326 106.933 57.722 107.088 58H105.803C105.675 57.7448 105.593 57.4463 105.557 57.1045ZM105.454 54.3564C105.007 54.5387 104.338 54.6937 103.444 54.8213C102.938 54.8942 102.581 54.9762 102.371 55.0674C102.161 55.1585 102 55.293 101.886 55.4707C101.772 55.6439 101.715 55.8376 101.715 56.0518C101.715 56.3799 101.838 56.6533 102.084 56.8721C102.335 57.0908 102.699 57.2002 103.178 57.2002C103.652 57.2002 104.073 57.0977 104.442 56.8926C104.812 56.6829 105.083 56.3981 105.256 56.0381C105.388 55.7601 105.454 55.3499 105.454 54.8076V54.3564ZM108.619 49.3936V47.9785H109.85V49.3936H108.619ZM108.619 58V50.7402H109.85V58H108.619ZM111.716 58V50.7402H112.823V51.8408C113.106 51.3258 113.366 50.9863 113.603 50.8223C113.844 50.6582 114.108 50.5762 114.396 50.5762C114.81 50.5762 115.232 50.7083 115.66 50.9727L115.236 52.1143C114.936 51.9365 114.635 51.8477 114.334 51.8477C114.065 51.8477 113.824 51.9297 113.609 52.0938C113.395 52.2533 113.243 52.4766 113.151 52.7637C113.015 53.2012 112.946 53.6797 112.946 54.1992V58H111.716ZM115.913 54.9922V53.7549H119.693V54.9922H115.913ZM123.07 58L120.309 50.7402H121.607L123.166 55.0879C123.335 55.5573 123.49 56.0449 123.631 56.5508C123.74 56.168 123.893 55.7077 124.089 55.1699L125.702 50.7402H126.967L124.219 58H123.07ZM132.791 57.1045C132.335 57.4919 131.896 57.7653 131.472 57.9248C131.052 58.0843 130.601 58.1641 130.118 58.1641C129.321 58.1641 128.708 57.9704 128.279 57.583C127.851 57.1911 127.637 56.6921 127.637 56.0859C127.637 55.7305 127.716 55.4069 127.876 55.1152C128.04 54.819 128.252 54.582 128.512 54.4043C128.776 54.2266 129.072 54.0921 129.4 54.001C129.642 53.9372 130.007 53.8757 130.494 53.8164C131.488 53.6979 132.219 53.5566 132.688 53.3926C132.693 53.224 132.695 53.1169 132.695 53.0713C132.695 52.57 132.579 52.2168 132.347 52.0117C132.032 51.7337 131.565 51.5947 130.945 51.5947C130.367 51.5947 129.938 51.6973 129.66 51.9023C129.387 52.1029 129.184 52.4606 129.052 52.9756L127.849 52.8115C127.958 52.2965 128.138 51.8818 128.389 51.5674C128.639 51.2484 129.002 51.0046 129.476 50.8359C129.95 50.6628 130.499 50.5762 131.123 50.5762C131.743 50.5762 132.246 50.6491 132.634 50.7949C133.021 50.9408 133.306 51.1253 133.488 51.3486C133.671 51.5674 133.798 51.8454 133.871 52.1826C133.912 52.3923 133.933 52.7705 133.933 53.3174V54.958C133.933 56.1019 133.958 56.8265 134.008 57.1318C134.062 57.4326 134.167 57.722 134.322 58H133.037C132.91 57.7448 132.827 57.4463 132.791 57.1045ZM132.688 54.3564C132.242 54.5387 131.572 54.6937 130.679 54.8213C130.173 54.8942 129.815 54.9762 129.605 55.0674C129.396 55.1585 129.234 55.293 129.12 55.4707C129.006 55.6439 128.949 55.8376 128.949 56.0518C128.949 56.3799 129.072 56.6533 129.318 56.8721C129.569 57.0908 129.934 57.2002 130.412 57.2002C130.886 57.2002 131.308 57.0977 131.677 56.8926C132.046 56.6829 132.317 56.3981 132.49 56.0381C132.622 55.7601 132.688 55.3499 132.688 54.8076V54.3564ZM135.819 58V47.9785H137.05V58H135.819ZM143.722 58V56.9336C143.157 57.7539 142.389 58.1641 141.418 58.1641C140.99 58.1641 140.589 58.082 140.215 57.918C139.846 57.7539 139.57 57.5488 139.388 57.3027C139.21 57.0521 139.085 56.7467 139.012 56.3867C138.962 56.1452 138.937 55.7624 138.937 55.2383V50.7402H140.167V54.7666C140.167 55.4092 140.192 55.8421 140.242 56.0654C140.32 56.389 140.484 56.6442 140.734 56.8311C140.985 57.0133 141.295 57.1045 141.664 57.1045C142.033 57.1045 142.38 57.0111 142.703 56.8242C143.027 56.6328 143.255 56.3753 143.387 56.0518C143.523 55.7236 143.592 55.2497 143.592 54.6299V50.7402H144.822V58H143.722ZM151.727 55.6621L152.998 55.8193C152.798 56.5622 152.426 57.1387 151.884 57.5488C151.341 57.959 150.649 58.1641 149.806 58.1641C148.744 58.1641 147.901 57.8382 147.276 57.1865C146.657 56.5303 146.347 55.612 146.347 54.4316C146.347 53.2103 146.661 52.2624 147.29 51.5879C147.919 50.9134 148.735 50.5762 149.737 50.5762C150.708 50.5762 151.501 50.9066 152.116 51.5674C152.731 52.2282 153.039 53.1579 153.039 54.3564C153.039 54.4294 153.037 54.5387 153.032 54.6846H147.618C147.664 55.4821 147.889 56.0928 148.295 56.5166C148.701 56.9404 149.206 57.1523 149.812 57.1523C150.264 57.1523 150.649 57.0339 150.968 56.7969C151.287 56.5599 151.54 56.1816 151.727 55.6621ZM147.687 53.6729H151.74C151.686 53.0622 151.531 52.6042 151.275 52.2988C150.883 51.8249 150.375 51.5879 149.751 51.5879C149.186 51.5879 148.71 51.777 148.322 52.1553C147.939 52.5335 147.728 53.0394 147.687 53.6729ZM158.446 60.7822V50.7402H159.567V51.6836C159.832 51.3145 160.13 51.0387 160.463 50.8564C160.796 50.6696 161.199 50.5762 161.673 50.5762C162.293 50.5762 162.84 50.7357 163.313 51.0547C163.787 51.3737 164.145 51.8249 164.387 52.4082C164.628 52.987 164.749 53.6227 164.749 54.3154C164.749 55.0583 164.615 55.7282 164.346 56.3252C164.081 56.9176 163.694 57.3734 163.184 57.6924C162.678 58.0068 162.145 58.1641 161.584 58.1641C161.174 58.1641 160.805 58.0775 160.477 57.9043C160.153 57.7311 159.886 57.5124 159.677 57.248V60.7822H158.446ZM159.561 54.4111C159.561 55.3454 159.75 56.0358 160.128 56.4824C160.506 56.929 160.964 57.1523 161.502 57.1523C162.049 57.1523 162.516 56.9222 162.903 56.4619C163.295 55.9971 163.491 55.2793 163.491 54.3086C163.491 53.3835 163.3 52.6908 162.917 52.2305C162.539 51.7702 162.085 51.54 161.557 51.54C161.033 51.54 160.568 51.7861 160.162 52.2783C159.761 52.766 159.561 53.4769 159.561 54.4111ZM166.226 58V50.7402H167.333V51.8408C167.616 51.3258 167.875 50.9863 168.112 50.8223C168.354 50.6582 168.618 50.5762 168.905 50.5762C169.32 50.5762 169.742 50.7083 170.17 50.9727L169.746 52.1143C169.445 51.9365 169.145 51.8477 168.844 51.8477C168.575 51.8477 168.333 51.9297 168.119 52.0938C167.905 52.2533 167.752 52.4766 167.661 52.7637C167.524 53.2012 167.456 53.6797 167.456 54.1992V58H166.226ZM170.908 49.3936V47.9785H172.139V49.3936H170.908ZM170.908 58V50.7402H172.139V58H170.908ZM178.756 55.3408L179.966 55.498C179.834 56.332 179.494 56.986 178.947 57.46C178.405 57.9294 177.737 58.1641 176.944 58.1641C175.951 58.1641 175.151 57.8405 174.545 57.1934C173.943 56.5417 173.643 55.6097 173.643 54.3975C173.643 53.6136 173.772 52.9277 174.032 52.3398C174.292 51.752 174.686 51.3122 175.215 51.0205C175.748 50.7243 176.327 50.5762 176.951 50.5762C177.74 50.5762 178.384 50.7767 178.886 51.1777C179.387 51.5742 179.708 52.1393 179.85 52.873L178.653 53.0576C178.539 52.57 178.337 52.2031 178.045 51.957C177.758 51.7109 177.409 51.5879 176.999 51.5879C176.379 51.5879 175.876 51.8112 175.488 52.2578C175.101 52.6999 174.907 53.4017 174.907 54.3633C174.907 55.3385 175.094 56.0472 175.468 56.4893C175.841 56.9313 176.329 57.1523 176.931 57.1523C177.414 57.1523 177.817 57.0042 178.141 56.708C178.464 56.4118 178.669 55.9561 178.756 55.3408ZM185.988 55.6621L187.26 55.8193C187.059 56.5622 186.688 57.1387 186.146 57.5488C185.603 57.959 184.91 58.1641 184.067 58.1641C183.006 58.1641 182.162 57.8382 181.538 57.1865C180.918 56.5303 180.608 55.612 180.608 54.4316C180.608 53.2103 180.923 52.2624 181.552 51.5879C182.181 50.9134 182.996 50.5762 183.999 50.5762C184.97 50.5762 185.763 50.9066 186.378 51.5674C186.993 52.2282 187.301 53.1579 187.301 54.3564C187.301 54.4294 187.299 54.5387 187.294 54.6846H181.88C181.925 55.4821 182.151 56.0928 182.557 56.5166C182.962 56.9404 183.468 57.1523 184.074 57.1523C184.525 57.1523 184.91 57.0339 185.229 56.7969C185.549 56.5599 185.801 56.1816 185.988 55.6621ZM181.948 53.6729H186.002C185.947 53.0622 185.792 52.6042 185.537 52.2988C185.145 51.8249 184.637 51.5879 184.013 51.5879C183.448 51.5879 182.971 51.777 182.584 52.1553C182.201 52.5335 181.989 53.0394 181.948 53.6729ZM197.418 58V57.084C196.958 57.804 196.281 58.1641 195.388 58.1641C194.809 58.1641 194.276 58.0046 193.788 57.6855C193.305 57.3665 192.929 56.9222 192.66 56.3525C192.396 55.7783 192.264 55.1198 192.264 54.377C192.264 53.6523 192.384 52.9961 192.626 52.4082C192.868 51.8158 193.23 51.3623 193.713 51.0479C194.196 50.7334 194.736 50.5762 195.333 50.5762C195.771 50.5762 196.16 50.6696 196.502 50.8564C196.844 51.0387 197.122 51.278 197.336 51.5742V47.9785H198.56V58H197.418ZM193.528 54.377C193.528 55.3066 193.724 56.0016 194.116 56.4619C194.508 56.9222 194.971 57.1523 195.504 57.1523C196.042 57.1523 196.497 56.9336 196.871 56.4961C197.249 56.054 197.438 55.3818 197.438 54.4795C197.438 53.486 197.247 52.7568 196.864 52.292C196.481 51.8271 196.01 51.5947 195.449 51.5947C194.902 51.5947 194.444 51.818 194.075 52.2646C193.711 52.7113 193.528 53.4154 193.528 54.377ZM200.508 49.3936V47.9785H201.738V49.3936H200.508ZM200.508 58V50.7402H201.738V58H200.508ZM203.126 55.833L204.343 55.6416C204.411 56.1292 204.6 56.5029 204.91 56.7627C205.225 57.0225 205.662 57.1523 206.223 57.1523C206.788 57.1523 207.207 57.0384 207.48 56.8105C207.754 56.5781 207.891 56.307 207.891 55.9971C207.891 55.7191 207.77 55.5003 207.528 55.3408C207.36 55.2314 206.94 55.0924 206.271 54.9238C205.368 54.696 204.742 54.5 204.391 54.3359C204.044 54.1673 203.78 53.9372 203.598 53.6455C203.42 53.3493 203.331 53.0234 203.331 52.668C203.331 52.3444 203.404 52.0459 203.55 51.7725C203.7 51.4945 203.903 51.2643 204.158 51.082C204.35 50.9408 204.609 50.8223 204.938 50.7266C205.27 50.6263 205.626 50.5762 206.004 50.5762C206.574 50.5762 207.073 50.6582 207.501 50.8223C207.934 50.9863 208.253 51.2096 208.458 51.4922C208.663 51.7702 208.804 52.1439 208.882 52.6133L207.679 52.7773C207.624 52.4036 207.465 52.112 207.2 51.9023C206.94 51.6927 206.571 51.5879 206.093 51.5879C205.528 51.5879 205.124 51.6813 204.883 51.8682C204.641 52.055 204.521 52.2738 204.521 52.5244C204.521 52.6839 204.571 52.8275 204.671 52.9551C204.771 53.0872 204.928 53.1966 205.143 53.2832C205.266 53.3288 205.628 53.4336 206.229 53.5977C207.1 53.8301 207.706 54.0215 208.048 54.1719C208.394 54.3177 208.665 54.5319 208.861 54.8145C209.057 55.097 209.155 55.4479 209.155 55.8672C209.155 56.2773 209.035 56.6647 208.793 57.0293C208.556 57.3893 208.212 57.6696 207.761 57.8701C207.31 58.0661 206.799 58.1641 206.229 58.1641C205.286 58.1641 204.566 57.9681 204.069 57.5762C203.577 57.1842 203.263 56.6032 203.126 55.833ZM215.355 55.3408L216.565 55.498C216.433 56.332 216.094 56.986 215.547 57.46C215.005 57.9294 214.337 58.1641 213.544 58.1641C212.55 58.1641 211.751 57.8405 211.145 57.1934C210.543 56.5417 210.242 55.6097 210.242 54.3975C210.242 53.6136 210.372 52.9277 210.632 52.3398C210.892 51.752 211.286 51.3122 211.814 51.0205C212.348 50.7243 212.926 50.5762 213.551 50.5762C214.339 50.5762 214.984 50.7767 215.485 51.1777C215.987 51.5742 216.308 52.1393 216.449 52.873L215.253 53.0576C215.139 52.57 214.936 52.2031 214.645 51.957C214.357 51.7109 214.009 51.5879 213.599 51.5879C212.979 51.5879 212.475 51.8112 212.088 52.2578C211.701 52.6999 211.507 53.4017 211.507 54.3633C211.507 55.3385 211.694 56.0472 212.067 56.4893C212.441 56.9313 212.929 57.1523 213.53 57.1523C214.013 57.1523 214.417 57.0042 214.74 56.708C215.064 56.4118 215.269 55.9561 215.355 55.3408ZM217.16 54.3701C217.16 53.0257 217.534 52.0299 218.281 51.3828C218.906 50.8451 219.667 50.5762 220.564 50.5762C221.562 50.5762 222.378 50.9043 223.012 51.5605C223.645 52.2122 223.962 53.1146 223.962 54.2676C223.962 55.2018 223.821 55.9378 223.538 56.4756C223.26 57.0088 222.852 57.4235 222.314 57.7197C221.781 58.016 221.198 58.1641 220.564 58.1641C219.548 58.1641 218.726 57.8382 218.097 57.1865C217.472 56.5348 217.16 55.596 217.16 54.3701ZM218.425 54.3701C218.425 55.2998 218.628 55.9971 219.033 56.4619C219.439 56.9222 219.949 57.1523 220.564 57.1523C221.175 57.1523 221.683 56.9199 222.089 56.4551C222.494 55.9902 222.697 55.2816 222.697 54.3291C222.697 53.4313 222.492 52.7523 222.082 52.292C221.676 51.8271 221.171 51.5947 220.564 51.5947C219.949 51.5947 219.439 51.8249 219.033 52.2852C218.628 52.7454 218.425 53.4404 218.425 54.3701ZM227.428 58L224.666 50.7402H225.965L227.523 55.0879C227.692 55.5573 227.847 56.0449 227.988 56.5508C228.098 56.168 228.25 55.7077 228.446 55.1699L230.06 50.7402H231.324L228.576 58H227.428ZM237.381 55.6621L238.652 55.8193C238.452 56.5622 238.08 57.1387 237.538 57.5488C236.996 57.959 236.303 58.1641 235.46 58.1641C234.398 58.1641 233.555 57.8382 232.931 57.1865C232.311 56.5303 232.001 55.612 232.001 54.4316C232.001 53.2103 232.315 52.2624 232.944 51.5879C233.573 50.9134 234.389 50.5762 235.392 50.5762C236.362 50.5762 237.155 50.9066 237.771 51.5674C238.386 52.2282 238.693 53.1579 238.693 54.3564C238.693 54.4294 238.691 54.5387 238.687 54.6846H233.272C233.318 55.4821 233.544 56.0928 233.949 56.5166C234.355 56.9404 234.861 57.1523 235.467 57.1523C235.918 57.1523 236.303 57.0339 236.622 56.7969C236.941 56.5599 237.194 56.1816 237.381 55.6621ZM233.341 53.6729H237.395C237.34 53.0622 237.185 52.6042 236.93 52.2988C236.538 51.8249 236.03 51.5879 235.405 51.5879C234.84 51.5879 234.364 51.777 233.977 52.1553C233.594 52.5335 233.382 53.0394 233.341 53.6729ZM240.19 58V50.7402H241.298V51.8408C241.58 51.3258 241.84 50.9863 242.077 50.8223C242.319 50.6582 242.583 50.5762 242.87 50.5762C243.285 50.5762 243.706 50.7083 244.135 50.9727L243.711 52.1143C243.41 51.9365 243.109 51.8477 242.809 51.8477C242.54 51.8477 242.298 51.9297 242.084 52.0938C241.87 52.2533 241.717 52.4766 241.626 52.7637C241.489 53.2012 241.421 53.6797 241.421 54.1992V58H240.19ZM244.812 60.7959L244.675 59.6406C244.944 59.7135 245.178 59.75 245.379 59.75C245.652 59.75 245.871 59.7044 246.035 59.6133C246.199 59.5221 246.334 59.3945 246.438 59.2305C246.516 59.1074 246.641 58.8021 246.814 58.3145C246.837 58.2461 246.874 58.1458 246.924 58.0137L244.169 50.7402H245.495L247.006 54.9443C247.202 55.4775 247.377 56.0381 247.532 56.626C247.674 56.0609 247.842 55.5094 248.038 54.9717L249.59 50.7402H250.82L248.059 58.123C247.762 58.9206 247.532 59.4697 247.368 59.7705C247.149 60.1761 246.899 60.4723 246.616 60.6592C246.334 60.8506 245.996 60.9463 245.604 60.9463C245.368 60.9463 245.103 60.8962 244.812 60.7959ZM258.449 56.8994L258.627 57.9863C258.281 58.0592 257.971 58.0957 257.697 58.0957C257.251 58.0957 256.904 58.0251 256.658 57.8838C256.412 57.7425 256.239 57.5579 256.139 57.3301C256.038 57.0977 255.988 56.6123 255.988 55.874V51.6973H255.086V50.7402H255.988V48.9424L257.212 48.2041V50.7402H258.449V51.6973H257.212V55.9424C257.212 56.2933 257.232 56.5189 257.273 56.6191C257.319 56.7194 257.39 56.7992 257.485 56.8584C257.586 56.9176 257.727 56.9473 257.909 56.9473C258.046 56.9473 258.226 56.9313 258.449 56.8994ZM259.646 58V50.7402H260.753V51.8408C261.035 51.3258 261.295 50.9863 261.532 50.8223C261.774 50.6582 262.038 50.5762 262.325 50.5762C262.74 50.5762 263.161 50.7083 263.59 50.9727L263.166 52.1143C262.865 51.9365 262.564 51.8477 262.264 51.8477C261.995 51.8477 261.753 51.9297 261.539 52.0938C261.325 52.2533 261.172 52.4766 261.081 52.7637C260.944 53.2012 260.876 53.6797 260.876 54.1992V58H259.646ZM263.863 54.3701C263.863 53.0257 264.237 52.0299 264.984 51.3828C265.609 50.8451 266.37 50.5762 267.268 50.5762C268.266 50.5762 269.081 50.9043 269.715 51.5605C270.348 52.2122 270.665 53.1146 270.665 54.2676C270.665 55.2018 270.524 55.9378 270.241 56.4756C269.963 57.0088 269.555 57.4235 269.018 57.7197C268.484 58.016 267.901 58.1641 267.268 58.1641C266.251 58.1641 265.429 57.8382 264.8 57.1865C264.175 56.5348 263.863 55.596 263.863 54.3701ZM265.128 54.3701C265.128 55.2998 265.331 55.9971 265.736 56.4619C266.142 56.9222 266.652 57.1523 267.268 57.1523C267.878 57.1523 268.386 56.9199 268.792 56.4551C269.198 55.9902 269.4 55.2816 269.4 54.3291C269.4 53.4313 269.195 52.7523 268.785 52.292C268.38 51.8271 267.874 51.5947 267.268 51.5947C266.652 51.5947 266.142 51.8249 265.736 52.2852C265.331 52.7454 265.128 53.4404 265.128 54.3701ZM276.872 58V56.9336C276.307 57.7539 275.539 58.1641 274.568 58.1641C274.14 58.1641 273.739 58.082 273.365 57.918C272.996 57.7539 272.72 57.5488 272.538 57.3027C272.36 57.0521 272.235 56.7467 272.162 56.3867C272.112 56.1452 272.087 55.7624 272.087 55.2383V50.7402H273.317V54.7666C273.317 55.4092 273.342 55.8421 273.393 56.0654C273.47 56.389 273.634 56.6442 273.885 56.8311C274.135 57.0133 274.445 57.1045 274.814 57.1045C275.184 57.1045 275.53 57.0111 275.854 56.8242C276.177 56.6328 276.405 56.3753 276.537 56.0518C276.674 55.7236 276.742 55.2497 276.742 54.6299V50.7402H277.973V58H276.872ZM279.682 58.6016L280.878 58.7793C280.928 59.1484 281.067 59.4173 281.295 59.5859C281.6 59.8138 282.017 59.9277 282.546 59.9277C283.116 59.9277 283.555 59.8138 283.865 59.5859C284.175 59.3581 284.385 59.0391 284.494 58.6289C284.558 58.3783 284.588 57.8519 284.583 57.0498C284.045 57.6833 283.375 58 282.573 58C281.575 58 280.803 57.64 280.256 56.9199C279.709 56.1999 279.436 55.3363 279.436 54.3291C279.436 53.6364 279.561 52.9984 279.812 52.415C280.062 51.8271 280.424 51.3737 280.898 51.0547C281.377 50.7357 281.938 50.5762 282.58 50.5762C283.437 50.5762 284.143 50.9225 284.699 51.6152V50.7402H285.834V57.0156C285.834 58.1458 285.718 58.9456 285.485 59.415C285.257 59.889 284.893 60.2627 284.392 60.5361C283.895 60.8096 283.282 60.9463 282.553 60.9463C281.687 60.9463 280.987 60.7503 280.454 60.3584C279.921 59.971 279.663 59.3854 279.682 58.6016ZM280.7 54.2402C280.7 55.1927 280.889 55.8877 281.268 56.3252C281.646 56.7627 282.12 56.9814 282.689 56.9814C283.255 56.9814 283.729 56.765 284.111 56.332C284.494 55.8945 284.686 55.2109 284.686 54.2812C284.686 53.3926 284.487 52.7227 284.091 52.2715C283.699 51.8203 283.225 51.5947 282.669 51.5947C282.122 51.5947 281.657 51.818 281.274 52.2646C280.892 52.7067 280.7 53.3652 280.7 54.2402ZM287.7 58V47.9785H288.931V51.5742C289.505 50.9089 290.229 50.5762 291.104 50.5762C291.642 50.5762 292.109 50.6833 292.506 50.8975C292.902 51.1071 293.185 51.3988 293.354 51.7725C293.527 52.1462 293.613 52.6885 293.613 53.3994V58H292.383V53.3994C292.383 52.7842 292.248 52.3376 291.979 52.0596C291.715 51.777 291.339 51.6357 290.852 51.6357C290.487 51.6357 290.143 51.7314 289.819 51.9229C289.5 52.1097 289.272 52.3649 289.136 52.6885C288.999 53.012 288.931 53.4587 288.931 54.0283V58H287.7ZM304.359 55.6621L305.631 55.8193C305.43 56.5622 305.059 57.1387 304.517 57.5488C303.974 57.959 303.282 58.1641 302.438 58.1641C301.377 58.1641 300.534 57.8382 299.909 57.1865C299.289 56.5303 298.979 55.612 298.979 54.4316C298.979 53.2103 299.294 52.2624 299.923 51.5879C300.552 50.9134 301.368 50.5762 302.37 50.5762C303.341 50.5762 304.134 50.9066 304.749 51.5674C305.364 52.2282 305.672 53.1579 305.672 54.3564C305.672 54.4294 305.67 54.5387 305.665 54.6846H300.251C300.297 55.4821 300.522 56.0928 300.928 56.5166C301.333 56.9404 301.839 57.1523 302.445 57.1523C302.896 57.1523 303.282 57.0339 303.601 56.7969C303.92 56.5599 304.173 56.1816 304.359 55.6621ZM300.319 53.6729H304.373C304.318 53.0622 304.163 52.6042 303.908 52.2988C303.516 51.8249 303.008 51.5879 302.384 51.5879C301.819 51.5879 301.342 51.777 300.955 52.1553C300.572 52.5335 300.36 53.0394 300.319 53.6729ZM307.183 58V50.7402H308.29V51.7725C308.823 50.9749 309.593 50.5762 310.601 50.5762C311.038 50.5762 311.439 50.6559 311.804 50.8154C312.173 50.9704 312.449 51.1755 312.631 51.4307C312.813 51.6859 312.941 51.9889 313.014 52.3398C313.059 52.5677 313.082 52.9665 313.082 53.5361V58H311.852V53.584C311.852 53.0827 311.804 52.709 311.708 52.4629C311.612 52.2122 311.441 52.014 311.195 51.8682C310.954 51.7178 310.669 51.6426 310.341 51.6426C309.817 51.6426 309.363 51.8089 308.98 52.1416C308.602 52.4743 308.413 53.1055 308.413 54.0352V58H307.183ZM319.713 55.3408L320.923 55.498C320.791 56.332 320.451 56.986 319.904 57.46C319.362 57.9294 318.694 58.1641 317.901 58.1641C316.908 58.1641 316.108 57.8405 315.502 57.1934C314.9 56.5417 314.6 55.6097 314.6 54.3975C314.6 53.6136 314.729 52.9277 314.989 52.3398C315.249 51.752 315.643 51.3122 316.172 51.0205C316.705 50.7243 317.284 50.5762 317.908 50.5762C318.697 50.5762 319.341 50.7767 319.843 51.1777C320.344 51.5742 320.665 52.1393 320.807 52.873L319.61 53.0576C319.496 52.57 319.294 52.2031 319.002 51.957C318.715 51.7109 318.366 51.5879 317.956 51.5879C317.336 51.5879 316.833 51.8112 316.445 52.2578C316.058 52.6999 315.864 53.4017 315.864 54.3633C315.864 55.3385 316.051 56.0472 316.425 56.4893C316.799 56.9313 317.286 57.1523 317.888 57.1523C318.371 57.1523 318.774 57.0042 319.098 56.708C319.421 56.4118 319.626 55.9561 319.713 55.3408ZM321.962 58V50.7402H323.069V51.8408C323.352 51.3258 323.612 50.9863 323.849 50.8223C324.09 50.6582 324.354 50.5762 324.642 50.5762C325.056 50.5762 325.478 50.7083 325.906 50.9727L325.482 52.1143C325.182 51.9365 324.881 51.8477 324.58 51.8477C324.311 51.8477 324.07 51.9297 323.855 52.0938C323.641 52.2533 323.489 52.4766 323.397 52.7637C323.261 53.2012 323.192 53.6797 323.192 54.1992V58H321.962ZM326.583 60.7959L326.446 59.6406C326.715 59.7135 326.95 59.75 327.15 59.75C327.424 59.75 327.643 59.7044 327.807 59.6133C327.971 59.5221 328.105 59.3945 328.21 59.2305C328.287 59.1074 328.413 58.8021 328.586 58.3145C328.609 58.2461 328.645 58.1458 328.695 58.0137L325.94 50.7402H327.267L328.777 54.9443C328.973 55.4775 329.149 56.0381 329.304 56.626C329.445 56.0609 329.614 55.5094 329.81 54.9717L331.361 50.7402H332.592L329.83 58.123C329.534 58.9206 329.304 59.4697 329.14 59.7705C328.921 60.1761 328.67 60.4723 328.388 60.6592C328.105 60.8506 327.768 60.9463 327.376 60.9463C327.139 60.9463 326.875 60.8962 326.583 60.7959ZM333.638 60.7822V50.7402H334.759V51.6836C335.023 51.3145 335.322 51.0387 335.654 50.8564C335.987 50.6696 336.39 50.5762 336.864 50.5762C337.484 50.5762 338.031 50.7357 338.505 51.0547C338.979 51.3737 339.337 51.8249 339.578 52.4082C339.82 52.987 339.94 53.6227 339.94 54.3154C339.94 55.0583 339.806 55.7282 339.537 56.3252C339.273 56.9176 338.885 57.3734 338.375 57.6924C337.869 58.0068 337.336 58.1641 336.775 58.1641C336.365 58.1641 335.996 58.0775 335.668 57.9043C335.344 57.7311 335.078 57.5124 334.868 57.248V60.7822H333.638ZM334.752 54.4111C334.752 55.3454 334.941 56.0358 335.319 56.4824C335.698 56.929 336.156 57.1523 336.693 57.1523C337.24 57.1523 337.707 56.9222 338.095 56.4619C338.487 55.9971 338.683 55.2793 338.683 54.3086C338.683 53.3835 338.491 52.6908 338.108 52.2305C337.73 51.7702 337.277 51.54 336.748 51.54C336.224 51.54 335.759 51.7861 335.354 52.2783C334.952 52.766 334.752 53.4769 334.752 54.4111ZM344.117 56.8994L344.295 57.9863C343.949 58.0592 343.639 58.0957 343.365 58.0957C342.919 58.0957 342.572 58.0251 342.326 57.8838C342.08 57.7425 341.907 57.5579 341.807 57.3301C341.706 57.0977 341.656 56.6123 341.656 55.874V51.6973H340.754V50.7402H341.656V48.9424L342.88 48.2041V50.7402H344.117V51.6973H342.88V55.9424C342.88 56.2933 342.9 56.5189 342.941 56.6191C342.987 56.7194 343.058 56.7992 343.153 56.8584C343.254 56.9176 343.395 56.9473 343.577 56.9473C343.714 56.9473 343.894 56.9313 344.117 56.8994ZM345.334 49.3936V47.9785H346.564V49.3936H345.334ZM345.334 58V50.7402H346.564V58H345.334ZM347.986 54.3701C347.986 53.0257 348.36 52.0299 349.107 51.3828C349.732 50.8451 350.493 50.5762 351.391 50.5762C352.389 50.5762 353.204 50.9043 353.838 51.5605C354.471 52.2122 354.788 53.1146 354.788 54.2676C354.788 55.2018 354.647 55.9378 354.364 56.4756C354.086 57.0088 353.678 57.4235 353.141 57.7197C352.607 58.016 352.024 58.1641 351.391 58.1641C350.374 58.1641 349.552 57.8382 348.923 57.1865C348.299 56.5348 347.986 55.596 347.986 54.3701ZM349.251 54.3701C349.251 55.2998 349.454 55.9971 349.859 56.4619C350.265 56.9222 350.775 57.1523 351.391 57.1523C352.001 57.1523 352.509 56.9199 352.915 56.4551C353.321 55.9902 353.523 55.2816 353.523 54.3291C353.523 53.4313 353.318 52.7523 352.908 52.292C352.503 51.8271 351.997 51.5947 351.391 51.5947C350.775 51.5947 350.265 51.8249 349.859 52.2852C349.454 52.7454 349.251 53.4404 349.251 54.3701ZM356.237 58V50.7402H357.345V51.7725C357.878 50.9749 358.648 50.5762 359.655 50.5762C360.093 50.5762 360.494 50.6559 360.858 50.8154C361.228 50.9704 361.503 51.1755 361.686 51.4307C361.868 51.6859 361.995 51.9889 362.068 52.3398C362.114 52.5677 362.137 52.9665 362.137 53.5361V58H360.906V53.584C360.906 53.0827 360.858 52.709 360.763 52.4629C360.667 52.2122 360.496 52.014 360.25 51.8682C360.008 51.7178 359.724 51.6426 359.396 51.6426C358.871 51.6426 358.418 51.8089 358.035 52.1416C357.657 52.4743 357.468 53.1055 357.468 54.0352V58H356.237Z" fill="url(#paint6_linear_68_2604)"/>
<defs>
<linearGradient id="paint0_linear_68_2604" x1="0" y1="31.5" x2="70" y2="31.5" gradientUnits="userSpaceOnUse">
<stop stop-color="white"/>
<stop offset="1" stop-color="#8BA2C8"/>
</linearGradient>
<linearGradient id="paint1_linear_68_2604" x1="0" y1="31.5" x2="70" y2="31.5" gradientUnits="userSpaceOnUse">
<stop stop-color="white"/>
<stop offset="1" stop-color="#8BA2C8"/>
</linearGradient>
<linearGradient id="paint2_linear_68_2604" x1="0" y1="31.5" x2="70" y2="31.5" gradientUnits="userSpaceOnUse">
<stop stop-color="white"/>
<stop offset="1" stop-color="#8BA2C8"/>
</linearGradient>
<linearGradient id="paint3_linear_68_2604" x1="0" y1="31.5" x2="70" y2="31.5" gradientUnits="userSpaceOnUse">
<stop stop-color="white"/>
<stop offset="1" stop-color="#8BA2C8"/>
</linearGradient>
<linearGradient id="paint4_linear_68_2604" x1="0" y1="31.5" x2="70" y2="31.5" gradientUnits="userSpaceOnUse">
<stop stop-color="white"/>
<stop offset="1" stop-color="#8BA2C8"/>
</linearGradient>
<linearGradient id="paint5_linear_68_2604" x1="85" y1="22.5" x2="406" y2="22.5" gradientUnits="userSpaceOnUse">
<stop stop-color="white"/>
<stop offset="1" stop-color="#8BA2C8"/>
</linearGradient>
<linearGradient id="paint6_linear_68_2604" x1="96" y1="53" x2="373" y2="53" gradientUnits="userSpaceOnUse">
<stop stop-color="white"/>
<stop offset="1" stop-color="#8BA2C8"/>
</linearGradient>
</defs>
</svg>
