<svg width="150" height="150" viewBox="0 0 150 150" fill="none" xmlns="http://www.w3.org/2000/svg">
<circle cx="75" cy="75" r="75" fill="url(#paint0_radial_500_595)"/>
<path d="M116.919 100L62.5001 45.581C61.3097 44.4444 59.7271 43.8101 58.0812 43.8101C56.4353 43.8101 54.8527 44.4444 53.6623 45.581L45.581 53.6622C44.4108 54.8352 43.7537 56.4243 43.7537 58.0812C43.7537 59.738 44.4108 61.3271 45.581 62.5001L99.997 116.919C101.17 118.089 102.759 118.746 104.416 118.746C106.073 118.746 107.662 118.089 108.835 116.919L116.919 108.836C117.5 108.256 117.96 107.567 118.274 106.809C118.588 106.051 118.75 105.238 118.75 104.417C118.75 103.597 118.588 102.784 118.274 102.026C117.96 101.268 117.5 100.58 116.919 100ZM50.0001 58.081L58.081 50.0001L73.706 65.6251L65.6229 73.7091L49.9979 58.0841L50.0001 58.081Z" fill="white"/>
<path d="M37.5002 68.7501L31.2503 75L37.5002 81.2499L43.7501 75L37.5002 68.7501Z" fill="white"/>
<path d="M75.0002 31.2502L68.7503 37.5001L75.0002 43.7501L81.2501 37.5001L75.0002 31.2502Z" fill="white"/>
<path d="M37.4999 31.2501L31.25 37.5001L37.4999 43.75L43.7499 37.5001L37.4999 31.2501Z" fill="white"/>
<defs>
<radialGradient id="paint0_radial_500_595" cx="0" cy="0" r="1" gradientUnits="userSpaceOnUse" gradientTransform="translate(75 75) rotate(90) scale(75)">
<stop stop-color="#2B4D7E" stop-opacity="0.5"/>
<stop offset="1" stop-color="#2B4D7E" stop-opacity="0"/>
</radialGradient>
</defs>
</svg>
