<svg width="500" height="557" viewBox="0 0 500 557" fill="none" xmlns="http://www.w3.org/2000/svg">
<circle cx="250" cy="250" r="250" fill="url(#paint0_radial_512_614)"/>
<path d="M405.626 246.458C393.728 215.321 372.98 188.345 345.939 168.854L395.835 118.854L381.147 104.167L104.168 381.146L118.856 395.833L171.981 342.812C195.693 356.633 222.559 364.129 250.001 364.583C283.954 363.306 316.789 352.109 344.447 332.374C372.105 312.639 393.375 285.233 405.626 253.541C406.454 251.253 406.454 248.747 405.626 246.458ZM250.001 317.708C235.643 317.702 221.663 313.102 210.106 304.583L229.168 285.729C237.072 290.06 246.168 291.711 255.09 290.435C264.012 289.158 272.279 285.024 278.652 278.651C285.025 272.278 289.16 264.01 290.436 255.088C291.712 246.166 290.061 237.071 285.731 229.166L304.585 210.312C311.923 220.391 316.331 232.304 317.322 244.732C318.313 257.16 315.848 269.62 310.199 280.734C304.55 291.849 295.938 301.185 285.314 307.71C274.69 314.235 262.469 317.695 250.001 317.708Z" fill="white"/>
<path d="M130.522 310.521L182.606 258.437C182.335 255.633 182.23 252.816 182.293 250C182.321 232.051 189.463 214.845 202.155 202.153C214.847 189.461 232.053 182.319 250.001 182.291C252.752 182.306 255.5 182.48 258.231 182.812L297.606 143.542C282.281 138.278 266.204 135.534 250.001 135.417C216.048 136.693 183.214 147.891 155.556 167.626C127.897 187.36 106.628 214.767 94.3764 246.458C93.549 248.747 93.549 251.253 94.3764 253.541C102.377 274.819 114.682 294.217 130.522 310.521Z" fill="white"/>
<path d="M135 500V408.375H153L190.5 469.562V408.375H207.688V500H189.125L152.188 440.25V500H135ZM227.438 500V408.375H290.25V423.875H245.938V445.562H284.188V461.062H245.938V500H227.438ZM326.188 500V423.875H299V408.375H371.812V423.875H344.688V500H326.188Z" fill="white"/>
<defs>
<radialGradient id="paint0_radial_512_614" cx="0" cy="0" r="1" gradientUnits="userSpaceOnUse" gradientTransform="translate(250 250) rotate(90) scale(250)">
<stop offset="0.425" stop-color="#2B4D7E" stop-opacity="0.5"/>
<stop offset="1" stop-color="#2B4D7E" stop-opacity="0"/>
</radialGradient>
</defs>
</svg>
