<svg width="150" height="150" viewBox="0 0 150 150" fill="none" xmlns="http://www.w3.org/2000/svg">
<circle cx="75" cy="75" r="75" fill="url(#paint0_radial_492_577)"/>
<path d="M118.75 43.75V37.5H109.375V31.25H103.125V37.5H100C96.5537 37.5 93.75 40.3047 93.75 43.75V50C93.75 53.4453 96.5537 56.25 100 56.25H112.5V62.5H93.75V68.75H103.125V75H109.375V68.75H112.5C115.946 68.75 118.75 65.9453 118.75 62.5V56.25C118.75 52.8047 115.946 50 112.5 50H100V43.75H118.75Z" fill="white"/>
<path d="M100 87.5V93.75H108.081L96.8756 104.956L89.7141 97.7903C89.1281 97.2044 88.3331 96.8747 87.5047 96.8747C86.6762 96.8747 85.8803 97.2044 85.2944 97.7903L68.75 114.331L73.1697 118.75L87.5031 104.419L94.6647 111.585C95.2506 112.171 96.0456 112.5 96.875 112.5C97.7034 112.5 98.4984 112.171 99.0844 111.585L112.5 98.1691V106.25H118.75V87.5H100Z" fill="white"/>
<path d="M37.5 118.75H31.25V103.125C31.25 91.0628 41.0628 81.25 53.125 81.25H71.875C78.0891 81.25 84.0316 83.9069 88.1781 88.54L83.5213 92.7087C80.5588 89.3987 76.3138 87.5003 71.875 87.5003H53.125C44.5091 87.5003 37.5 94.5097 37.5 103.125V118.75Z" fill="white"/>
<path d="M62.5 75C74.5812 75 84.375 65.2062 84.375 53.125C84.375 41.0438 74.5812 31.25 62.5 31.25C50.4188 31.25 40.625 41.0438 40.625 53.125C40.625 65.2062 50.4188 75 62.5 75ZM62.5 37.5C71.1297 37.5 78.125 44.4953 78.125 53.125C78.125 61.7547 71.1297 68.75 62.5 68.75C53.8703 68.75 46.875 61.7547 46.875 53.125C46.885 44.4997 53.8747 37.51 62.5 37.5Z" fill="white"/>
<defs>
<radialGradient id="paint0_radial_492_577" cx="0" cy="0" r="1" gradientUnits="userSpaceOnUse" gradientTransform="translate(75 75) rotate(90) scale(75)">
<stop stop-color="#2B4D7E" stop-opacity="0.5"/>
<stop offset="1" stop-color="#2B4D7E" stop-opacity="0"/>
</radialGradient>
</defs>
</svg>
