<svg width="942" height="203" viewBox="0 0 942 203" fill="none" xmlns="http://www.w3.org/2000/svg">
<g clip-path="url(#clip0_862_1117)">
<path d="M292.553 30.8823C281.524 30.8823 270.895 32.2681 266.567 33.4395C260.266 35.211 258.695 37.9683 257.509 43.6827L232.508 159.043C232.108 161.401 231.723 163.372 231.723 165.344C231.723 171.058 235.466 174.787 241.566 174.787C248.266 174.787 251.023 170.458 252.395 163.758L259.481 130.885C264.395 131.471 270.895 132.071 280.153 132.071C320.911 132.071 346.298 110.028 346.298 76.7551C346.298 47.6114 326.011 30.8823 292.553 30.8823ZM279.167 113.171C272.867 113.171 267.938 112.971 263.424 112.385L276.61 51.1544C280.738 50.5686 286.853 49.7686 293.153 49.7686C314.811 49.7686 325.84 60.0118 325.84 76.9409C325.826 98.5987 310.068 113.171 279.167 113.171Z" fill="#DBDBDB"/>
<path d="M933.929 136.786C930.586 136.786 928.414 138.757 924.285 143.286C917 150.772 912.471 154.901 906.771 154.901C901.656 154.901 898.899 150.772 898.899 144.072C898.899 140.329 899.685 135.8 900.67 130.885L907.956 96.6273H929.814C936.7 96.6273 940.843 92.6843 940.843 85.5984C940.843 81.6554 938.286 78.7125 932.386 78.7125H911.885L915.428 62.7692C915.828 60.4119 916.214 58.2404 916.214 56.269C916.214 50.7545 912.471 46.8115 906.371 46.8115C899.87 46.8115 896.928 51.1402 895.542 57.8404L891.013 78.7125H881.756C874.67 78.7125 870.541 82.6555 870.541 89.7414C870.541 93.6844 873.298 96.6273 879.198 96.6273H887.27L879.984 130.485C879.198 134.228 878.213 140.329 878.213 146.629C878.213 162.572 886.484 174.187 904.199 174.187C914.442 174.187 923.485 169.072 930.386 162.958C937.086 157.058 942 149.772 942 145.043C942 140.529 938.457 136.786 933.929 136.786Z" fill="#DBDBDB"/>
<path d="M481.144 42.497C481.144 36.7825 477.201 33.0396 471.101 33.0396C464.601 33.0396 461.658 37.3683 460.272 44.0685L435.671 158.443C435.086 160.801 434.686 162.772 434.686 164.744C434.686 170.458 438.629 174.187 444.529 174.187C451.229 174.187 454.172 169.858 455.558 163.158L480.158 48.7972C480.558 46.4257 481.144 44.4685 481.144 42.497Z" fill="#DBDBDB"/>
<path d="M832.54 76.7406C801.039 76.7406 779.581 108.042 779.581 137.771C779.581 138.328 779.595 138.885 779.609 139.428C774.666 146.928 768.352 154.7 764.023 154.7C760.88 154.7 759.694 151.743 759.694 147.214C759.694 141.7 761.266 132.442 763.037 124.371L779.381 48.7684C779.781 46.4111 780.166 44.4397 780.166 42.4682C780.166 36.7537 776.424 33.0107 770.323 33.0107C763.623 33.0107 760.88 37.3394 759.494 44.0396L750.637 84.9837C745.908 80.0693 739.008 76.7121 728.579 76.7121C707.664 76.7121 686.621 92.8126 678.421 117.513C669.392 140.857 661.32 154.672 654.948 154.672C652.591 154.672 651.205 152.7 651.205 149.357C651.205 139.514 656.72 115.499 659.077 103.884C659.863 99.5556 660.263 97.7841 660.263 95.2269C660.263 86.5695 645.891 76.3263 627.19 76.3263C605.561 76.3263 585.975 90.0268 576.16 110.37C561.574 136.142 548.188 154.672 541.559 154.672C538.602 154.672 537.616 150.929 536.831 147.386L531.93 120.256L562.046 95.6555C564.803 93.2983 568.346 89.941 568.346 85.6123C568.346 80.2979 564.803 76.7549 559.488 76.7549C555.545 76.7549 552.202 79.1121 548.859 81.8694L503.587 119.271L518.744 48.7969C519.144 46.4397 519.73 44.4682 519.73 42.4967C519.73 36.7823 515.787 33.0393 509.687 33.0393C503.187 33.0393 500.244 37.368 498.858 44.0682L474.257 158.443C473.671 160.8 473.271 162.772 473.271 164.743C473.271 170.458 477.214 174.186 483.115 174.186C489.815 174.186 492.758 169.858 494.144 163.158L497.301 148.4L515.801 133.442L520.33 156.272C522.102 165.329 526.83 174.186 539.031 174.186C551.174 174.186 560.731 163.1 570.303 148.114C573.203 163.815 584.375 174.186 599.875 174.186C615.433 174.186 626.062 164.929 632.948 152.529V152.929C632.948 165.729 639.448 174.186 650.863 174.186C661.191 174.186 669.763 167.958 677.42 154.729C681.763 166.258 691.478 174.186 704.993 174.186C720.936 174.186 732.351 164.543 739.637 151.157V152.343C739.637 166.515 746.723 174.201 758.337 174.201C768.595 174.201 777.309 168.243 784.752 158.557C790.41 168.243 800.553 174.201 814.253 174.201C845.754 174.201 867.212 142.9 867.212 112.97C867.198 91.8982 854.397 76.7406 832.54 76.7406ZM636.276 116.713C630.562 141.314 618.362 155.3 604.575 155.3C595.318 155.3 590.204 148.214 590.204 137.585C590.204 116.713 605.361 94.2697 625.633 94.2697C631.733 94.2697 636.462 96.0412 640.591 98.5985L636.276 116.713ZM745.923 106.284C739.622 135.228 725.251 155.3 709.507 155.3C700.85 155.3 695.721 148.6 695.721 137.585C695.721 116.528 710.293 94.6698 729.779 94.6698C737.265 94.6698 742.965 97.227 747.108 100.57L745.923 106.284ZM816.596 155.3C805.182 155.3 800.453 147.028 800.453 136.6C800.453 117.499 813.639 95.6555 830.182 95.6555C841.597 95.6555 846.326 103.927 846.326 114.356C846.326 133.642 833.14 155.3 816.596 155.3Z" fill="#DBDBDB"/>
<path d="M395.312 76.7407C363.811 76.7407 342.354 108.042 342.354 137.771C342.354 159.029 355.154 174.187 376.997 174.187C408.498 174.187 429.956 142.886 429.956 112.956C429.956 91.8983 417.156 76.7407 395.312 76.7407ZM379.369 155.3C367.954 155.3 363.226 147.029 363.226 136.6C363.226 117.499 376.412 95.6556 392.955 95.6556C404.37 95.6556 409.098 103.927 409.098 114.356C409.084 133.642 395.898 155.3 379.369 155.3Z" fill="#DBDBDB"/>
<path d="M94.7164 43.0826C114.781 43.0826 131.046 33.6228 131.046 21.9534C131.046 10.2841 114.781 0.824219 94.7164 0.824219C74.6521 0.824219 58.3867 10.2841 58.3867 21.9534C58.3867 33.6228 74.6521 43.0826 94.7164 43.0826Z" fill="#DBDBDB"/>
<path d="M94.7164 202.288C114.781 202.288 131.046 192.828 131.046 181.159C131.046 169.489 114.781 160.029 94.7164 160.029C74.6521 160.029 58.3867 169.489 58.3867 181.159C58.3867 192.828 74.6521 202.288 94.7164 202.288Z" fill="#DBDBDB"/>
<path d="M44.0901 72.3304C54.1222 54.9547 54.0571 36.1358 43.9446 30.2972C33.8321 24.4586 17.5017 33.8112 7.46952 51.1869C-2.56264 68.5626 -2.49753 87.3816 7.61496 93.2202C17.7274 99.0588 34.0579 89.7061 44.0901 72.3304Z" fill="#DBDBDB"/>
<path d="M181.95 151.924C191.982 134.548 191.923 115.732 181.817 109.897C171.711 104.063 155.386 113.419 145.354 130.794C135.322 148.17 135.382 166.986 145.487 172.82C155.593 178.655 171.918 169.299 181.95 151.924Z" fill="#DBDBDB"/>
<path d="M43.9485 172.816C54.061 166.977 54.1261 148.158 44.094 130.782C34.0618 113.407 17.7313 104.054 7.61886 109.893C-2.49362 115.731 -2.55873 134.55 7.47343 151.926C17.5056 169.302 33.8361 178.654 43.9485 172.816Z" fill="#DBDBDB"/>
<path d="M181.825 93.2251C191.93 87.3904 191.99 68.5747 181.958 51.199C171.926 33.8233 155.601 24.4674 145.495 30.3021C135.39 36.1368 135.33 54.9525 145.362 72.3282C155.394 89.7039 171.719 99.0598 181.825 93.2251Z" fill="#DBDBDB"/>
</g>
<defs>
<clipPath id="clip0_862_1117">
<rect width="942" height="201.478" fill="white" transform="translate(0 0.824219)"/>
</clipPath>
</defs>
</svg>
