<svg width="1455" height="311" viewBox="0 0 1455 311" fill="none" xmlns="http://www.w3.org/2000/svg">
<g clip-path="url(#clip0_862_1117)">
<path d="M451.583 46.3975C434.559 46.3975 418.152 48.5365 411.47 50.3448C401.746 53.0792 399.32 57.3353 397.489 66.1561L358.898 244.226C358.281 247.865 357.686 250.908 357.686 253.951C357.686 262.772 363.463 268.528 372.879 268.528C383.222 268.528 387.478 261.846 389.595 251.504L400.533 200.762C408.119 201.666 418.152 202.592 432.442 202.592C495.356 202.592 534.543 168.566 534.543 117.207C534.543 72.2204 503.229 46.3975 451.583 46.3975ZM430.92 173.417C421.195 173.417 413.587 173.109 406.619 172.204L426.973 77.6893C433.346 76.7852 442.784 75.5503 452.509 75.5503C485.94 75.5503 502.964 91.3616 502.964 117.493C502.942 150.924 478.619 173.417 430.92 173.417Z" fill="white"/>
<path d="M1441.61 209.869C1436.45 209.869 1433.1 212.913 1426.72 219.903C1415.48 231.458 1408.49 237.831 1399.69 237.831C1391.79 237.831 1387.54 231.458 1387.54 221.116C1387.54 215.338 1388.75 208.348 1390.27 200.762L1401.52 147.881H1435.26C1445.89 147.881 1452.28 141.795 1452.28 130.857C1452.28 124.771 1448.33 120.228 1439.23 120.228H1407.58L1413.05 95.6177C1413.67 91.9791 1414.26 88.6272 1414.26 85.5841C1414.26 77.072 1408.49 70.9856 1399.07 70.9856C1389.04 70.9856 1384.49 77.6674 1382.35 88.0098L1375.36 120.228H1361.07C1350.14 120.228 1343.76 126.314 1343.76 137.252C1343.76 143.338 1348.02 147.881 1357.13 147.881H1369.59L1358.34 200.144C1357.13 205.922 1355.61 215.338 1355.61 225.063C1355.61 249.673 1368.37 267.602 1395.72 267.602C1411.53 267.602 1425.49 259.707 1436.14 250.269C1446.48 241.161 1454.07 229.915 1454.07 222.615C1454.07 215.647 1448.6 209.869 1441.61 209.869Z" fill="white"/>
<path d="M742.692 64.3258C742.692 55.5049 736.605 49.7273 727.189 49.7273C717.156 49.7273 712.613 56.4091 710.474 66.7515L672.5 243.3C671.596 246.939 670.979 249.982 670.979 253.025C670.979 261.846 677.065 267.601 686.172 267.601C696.515 267.601 701.058 260.92 703.197 250.577L741.17 74.0507C741.788 70.3901 742.692 67.3689 742.692 64.3258Z" fill="white"/>
<path d="M1285.1 117.185C1236.48 117.185 1203.36 165.501 1203.36 211.391C1203.36 212.251 1203.38 213.111 1203.4 213.949C1195.77 225.526 1186.02 237.523 1179.34 237.523C1174.49 237.523 1172.66 232.958 1172.66 225.967C1172.66 217.455 1175.09 203.165 1177.82 190.706L1203.05 74.0066C1203.67 70.368 1204.26 67.3249 1204.26 64.2817C1204.26 55.4609 1198.48 49.6832 1189.07 49.6832C1178.72 49.6832 1174.49 56.365 1172.35 66.7074L1158.68 129.909C1151.38 122.323 1140.73 117.14 1124.63 117.14C1092.35 117.14 1059.86 141.993 1047.21 180.121C1033.27 216.154 1020.81 237.478 1010.97 237.478C1007.34 237.478 1005.2 234.435 1005.2 229.275C1005.2 214.081 1013.71 177.012 1017.35 159.083C1018.56 152.402 1019.18 149.667 1019.18 145.72C1019.18 132.356 996.994 116.545 968.128 116.545C934.741 116.545 904.508 137.693 889.358 169.095C866.843 208.877 846.18 237.478 835.948 237.478C831.383 237.478 829.861 231.701 828.649 226.232L821.085 184.355L867.57 146.381C871.826 142.743 877.295 137.561 877.295 130.879C877.295 122.676 871.827 117.207 863.623 117.207C857.537 117.207 852.377 120.845 847.216 125.101L777.333 182.833L800.731 74.0507C801.348 70.4121 802.252 67.369 802.252 64.3258C802.252 55.505 796.166 49.7273 786.75 49.7273C776.716 49.7273 772.173 56.4091 770.034 66.7515L732.061 243.3C731.156 246.939 730.539 249.982 730.539 253.025C730.539 261.846 736.625 267.602 745.733 267.602C756.075 267.602 760.618 260.92 762.757 250.577L767.631 227.798L796.188 204.709L803.178 239.948C805.913 253.929 813.212 267.602 832.045 267.602C850.789 267.602 865.542 250.489 880.317 227.357C884.793 251.592 902.038 267.602 925.964 267.602C949.979 267.602 966.386 253.312 977.015 234.171V234.788C977.015 254.547 987.048 267.602 1004.67 267.602C1020.61 267.602 1033.84 257.987 1045.66 237.567C1052.37 255.363 1067.36 267.602 1088.22 267.602C1112.83 267.602 1130.45 252.716 1141.7 232.054V233.884C1141.7 255.76 1152.64 267.624 1170.57 267.624C1186.4 267.624 1199.85 258.428 1211.34 243.477C1220.07 258.428 1235.73 267.624 1256.88 267.624C1305.5 267.624 1338.62 219.308 1338.62 173.109C1338.6 140.582 1318.84 117.185 1285.1 117.185ZM982.153 178.886C973.332 216.86 954.5 238.449 933.219 238.449C918.93 238.449 911.035 227.511 911.035 211.104C911.035 178.886 934.432 144.242 965.724 144.242C975.14 144.242 982.44 146.977 988.813 150.924L982.153 178.886ZM1151.4 162.788C1141.68 207.466 1119.49 238.449 1095.19 238.449C1081.83 238.449 1073.91 228.106 1073.91 211.104C1073.91 178.599 1096.4 144.86 1126.48 144.86C1138.04 144.86 1146.84 148.807 1153.23 153.967L1151.4 162.788ZM1260.49 238.449C1242.87 238.449 1235.57 225.681 1235.57 209.583C1235.57 180.099 1255.93 146.381 1281.47 146.381C1299.08 146.381 1306.38 159.15 1306.38 175.248C1306.38 205.018 1286.03 238.449 1260.49 238.449Z" fill="white"/>
<path d="M610.202 117.185C561.577 117.185 528.455 165.501 528.455 211.391C528.455 244.204 548.214 267.602 581.931 267.602C630.556 267.602 663.678 219.286 663.678 173.087C663.678 140.582 643.92 117.185 610.202 117.185ZM585.592 238.449C567.972 238.449 560.673 225.681 560.673 209.583C560.673 180.099 581.027 146.381 606.563 146.381C624.183 146.381 631.482 159.15 631.482 175.248C631.46 205.018 611.106 238.449 585.592 238.449Z" fill="white"/>
<path d="M146.205 65.2299C177.177 65.2299 202.284 50.6277 202.284 32.615C202.284 14.6022 177.177 0 146.205 0C115.234 0 90.127 14.6022 90.127 32.615C90.127 50.6277 115.234 65.2299 146.205 65.2299Z" fill="#E6007A"/>
<path d="M146.205 310.978C177.177 310.978 202.284 296.376 202.284 278.363C202.284 260.35 177.177 245.748 146.205 245.748C115.234 245.748 90.127 260.35 90.127 278.363C90.127 296.376 115.234 310.978 146.205 310.978Z" fill="#E6007A"/>
<path d="M68.0567 110.377C83.5423 83.5558 83.4418 54.507 67.8322 45.4945C52.2227 36.4821 27.015 50.9188 11.5294 77.7399C-3.9562 104.561 -3.85569 133.61 11.7539 142.622C27.3635 151.635 52.5711 137.198 68.0567 110.377Z" fill="#E6007A"/>
<path d="M280.856 233.236C296.342 206.415 296.25 177.371 280.651 168.365C265.052 159.358 239.853 173.8 224.367 200.621C208.882 227.442 208.974 256.486 224.573 265.492C240.172 274.499 265.371 260.057 280.856 233.236Z" fill="#E6007A"/>
<path d="M67.8401 265.485C83.4496 256.472 83.5502 227.424 68.0645 200.603C52.5789 173.782 27.3713 159.345 11.7617 168.357C-3.84788 177.37 -3.94839 206.419 11.5372 233.24C27.0228 260.061 52.2305 274.497 67.8401 265.485Z" fill="#E6007A"/>
<path d="M280.665 142.629C296.264 133.623 296.356 104.579 280.87 77.758C265.384 50.9369 240.185 36.4952 224.586 45.5016C208.987 54.508 208.895 83.5519 224.381 110.373C239.867 137.194 265.066 151.636 280.665 142.629Z" fill="#E6007A"/>
</g>
<defs>
<clipPath id="clip0_862_1117">
<rect width="1454.07" height="311" fill="white"/>
</clipPath>
</defs>
</svg>
