<svg width="942" height="202" viewBox="0 0 942 202" fill="none" xmlns="http://www.w3.org/2000/svg">
<g clip-path="url(#clip0_862_1117)">
<path d="M292.553 30.0581C281.524 30.0581 270.895 31.4439 266.567 32.6153C260.266 34.3868 258.695 37.144 257.509 42.8585L232.508 158.219C232.108 160.576 231.723 162.548 231.723 164.519C231.723 170.234 235.466 173.962 241.566 173.962C248.266 173.962 251.023 169.634 252.395 162.934L259.481 130.061C264.395 130.647 270.895 131.247 280.153 131.247C320.911 131.247 346.298 109.203 346.298 75.9309C346.298 46.7872 326.011 30.0581 292.553 30.0581ZM279.167 112.346C272.867 112.346 267.938 112.146 263.424 111.561L276.61 50.3301C280.738 49.7444 286.853 48.9444 293.153 48.9444C314.811 48.9444 325.84 59.1876 325.84 76.1166C325.826 97.7744 310.068 112.346 279.167 112.346Z" fill="#EBEBEB"/>
<path d="M933.929 135.961C930.586 135.961 928.414 137.933 924.285 142.462C917 149.948 912.471 154.076 906.771 154.076C901.656 154.076 898.899 149.948 898.899 143.247C898.899 139.504 899.685 134.976 900.67 130.061L907.956 95.8031H929.814C936.7 95.8031 940.843 91.8601 940.843 84.7742C940.843 80.8312 938.286 77.8883 932.386 77.8883H911.885L915.428 61.9449C915.828 59.5877 916.214 57.4162 916.214 55.4447C916.214 49.9303 912.471 45.9873 906.371 45.9873C899.87 45.9873 896.928 50.316 895.542 57.0162L891.013 77.8883H881.756C874.67 77.8883 870.541 81.8313 870.541 88.9172C870.541 92.8602 873.298 95.8031 879.198 95.8031H887.27L879.984 129.661C879.198 133.404 878.213 139.504 878.213 145.805C878.213 161.748 886.484 173.363 904.199 173.363C914.442 173.363 923.485 168.248 930.386 162.134C937.086 156.234 942 148.948 942 144.219C942 139.704 938.457 135.961 933.929 135.961Z" fill="#EBEBEB"/>
<path d="M481.144 41.6728C481.144 35.9583 477.201 32.2153 471.101 32.2153C464.601 32.2153 461.658 36.544 460.272 43.2442L435.671 157.619C435.086 159.976 434.686 161.948 434.686 163.919C434.686 169.634 438.629 173.362 444.529 173.362C451.229 173.362 454.172 169.034 455.558 162.334L480.158 47.9729C480.558 45.6014 481.144 43.6443 481.144 41.6728Z" fill="#EBEBEB"/>
<path d="M832.54 75.9164C801.039 75.9164 779.581 107.217 779.581 136.947C779.581 137.504 779.595 138.061 779.609 138.604C774.666 146.104 768.352 153.876 764.023 153.876C760.88 153.876 759.694 150.919 759.694 146.39C759.694 140.876 761.266 131.618 763.037 123.546L779.381 47.9441C779.781 45.5869 780.166 43.6154 780.166 41.644C780.166 35.9295 776.424 32.1865 770.323 32.1865C763.623 32.1865 760.88 36.5152 759.494 43.2154L750.637 84.1595C745.908 79.2451 739.008 75.8879 728.579 75.8879C707.664 75.8879 686.621 91.9883 678.421 116.689C669.392 140.033 661.32 153.847 654.948 153.847C652.591 153.847 651.205 151.876 651.205 148.533C651.205 138.69 656.72 114.675 659.077 103.06C659.863 98.7314 660.263 96.9599 660.263 94.4027C660.263 85.7453 645.891 75.5021 627.19 75.5021C605.561 75.5021 585.975 89.2025 576.16 109.546C561.574 135.318 548.188 153.847 541.559 153.847C538.602 153.847 537.616 150.104 536.831 146.561L531.93 119.432L562.046 94.8313C564.803 92.4741 568.346 89.1168 568.346 84.7881C568.346 79.4737 564.803 75.9307 559.488 75.9307C555.545 75.9307 552.202 78.2879 548.859 81.0452L503.587 118.446L518.744 47.9727C519.144 45.6155 519.73 43.644 519.73 41.6725C519.73 35.9581 515.787 32.2151 509.687 32.2151C503.187 32.2151 500.244 36.5438 498.858 43.244L474.257 157.619C473.671 159.976 473.271 161.948 473.271 163.919C473.271 169.634 477.214 173.362 483.115 173.362C489.815 173.362 492.758 169.034 494.144 162.333L497.301 147.576L515.801 132.618L520.33 155.447C522.102 164.505 526.83 173.362 539.031 173.362C551.174 173.362 560.731 162.276 570.303 147.29C573.203 162.991 584.375 173.362 599.875 173.362C615.433 173.362 626.062 164.105 632.948 151.704V152.104C632.948 164.905 639.448 173.362 650.863 173.362C661.191 173.362 669.763 167.133 677.42 153.905C681.763 165.433 691.478 173.362 704.993 173.362C720.936 173.362 732.351 163.719 739.637 150.333V151.519C739.637 165.691 746.723 173.377 758.337 173.377C768.595 173.377 777.309 167.419 784.752 157.733C790.41 167.419 800.553 173.377 814.253 173.377C845.754 173.377 867.212 142.076 867.212 112.146C867.198 91.074 854.397 75.9164 832.54 75.9164ZM636.276 115.889C630.562 140.49 618.362 154.476 604.575 154.476C595.318 154.476 590.204 147.39 590.204 136.761C590.204 115.889 605.361 93.4455 625.633 93.4455C631.733 93.4455 636.462 95.217 640.591 97.7742L636.276 115.889ZM745.923 105.46C739.622 134.404 725.251 154.476 709.507 154.476C700.85 154.476 695.721 147.776 695.721 136.761C695.721 115.703 710.293 93.8455 729.779 93.8455C737.265 93.8455 742.965 96.4028 747.108 99.7457L745.923 105.46ZM816.596 154.476C805.182 154.476 800.453 146.204 800.453 135.775C800.453 116.675 813.639 94.8313 830.182 94.8313C841.597 94.8313 846.326 103.103 846.326 113.532C846.326 132.818 833.14 154.476 816.596 154.476Z" fill="#EBEBEB"/>
<path d="M395.312 75.9165C363.811 75.9165 342.354 107.217 342.354 136.947C342.354 158.205 355.154 173.362 376.997 173.362C408.498 173.362 429.956 142.061 429.956 112.132C429.956 91.0741 417.156 75.9165 395.312 75.9165ZM379.369 154.476C367.954 154.476 363.226 146.204 363.226 135.775C363.226 116.675 376.412 94.8314 392.955 94.8314C404.37 94.8314 409.098 103.103 409.098 113.532C409.084 132.818 395.898 154.476 379.369 154.476Z" fill="#EBEBEB"/>
<path d="M94.7164 42.2584C114.781 42.2584 131.046 32.7985 131.046 21.1292C131.046 9.45987 114.781 0 94.7164 0C74.6521 0 58.3867 9.45987 58.3867 21.1292C58.3867 32.7985 74.6521 42.2584 94.7164 42.2584Z" fill="#EBEBEB"/>
<path d="M94.7164 201.463C114.781 201.463 131.046 192.004 131.046 180.334C131.046 168.665 114.781 159.205 94.7164 159.205C74.6521 159.205 58.3867 168.665 58.3867 180.334C58.3867 192.004 74.6521 201.463 94.7164 201.463Z" fill="#EBEBEB"/>
<path d="M44.0901 71.5062C54.1222 54.1305 54.0571 35.3116 43.9446 29.473C33.8321 23.6344 17.5017 32.987 7.46952 50.3627C-2.56264 67.7384 -2.49753 86.5574 7.61496 92.396C17.7274 98.2346 34.0579 88.8819 44.0901 71.5062Z" fill="#EBEBEB"/>
<path d="M181.95 151.099C191.982 133.724 191.923 114.908 181.817 109.073C171.711 103.239 155.386 112.594 145.354 129.97C135.322 147.346 135.382 166.162 145.487 171.996C155.593 177.831 171.918 168.475 181.95 151.099Z" fill="#EBEBEB"/>
<path d="M43.9485 171.991C54.061 166.153 54.1261 147.334 44.094 129.958C34.0618 112.582 17.7313 103.23 7.61886 109.068C-2.49362 114.907 -2.55873 133.726 7.47343 151.102C17.5056 168.477 33.8361 177.83 43.9485 171.991Z" fill="#EBEBEB"/>
<path d="M181.825 92.4009C191.93 86.5662 191.99 67.7505 181.958 50.3748C171.926 32.9991 155.601 23.6432 145.495 29.4779C135.39 35.3125 135.33 54.1283 145.362 71.504C155.394 88.8797 171.719 98.2355 181.825 92.4009Z" fill="#EBEBEB"/>
</g>
<defs>
<clipPath id="clip0_862_1117">
<rect width="942" height="201.478" fill="white"/>
</clipPath>
</defs>
</svg>
