<svg width="182" height="62" viewBox="0 0 182 62" fill="none" xmlns="http://www.w3.org/2000/svg">
<path d="M2.04102 12.4545V3.45455H2.54812V4.91619H2.61204C2.71431 4.63494 2.85778 4.37642 3.04244 4.14062C3.22994 3.90483 3.46147 3.71591 3.73704 3.57386C4.01545 3.42898 4.34215 3.35653 4.71715 3.35653C5.24556 3.35653 5.70579 3.50142 6.09783 3.79119C6.48988 4.08097 6.79386 4.48153 7.00977 4.9929C7.22567 5.50142 7.33363 6.08523 7.33363 6.74432C7.33363 7.40341 7.22425 7.98864 7.0055 8.5C6.7896 9.00852 6.48562 9.40909 6.09357 9.7017C5.70437 9.99148 5.2484 10.1364 4.72567 10.1364C4.35352 10.1364 4.02681 10.0653 3.74556 9.9233C3.46715 9.78125 3.23278 9.59233 3.04244 9.35653C2.85494 9.1179 2.71147 8.85653 2.61204 8.57244H2.5609V12.4545H2.04102ZM2.55238 6.74006C2.55238 7.29687 2.63761 7.79545 2.80806 8.2358C2.97852 8.6733 3.22283 9.01989 3.54102 9.27557C3.8592 9.52841 4.23846 9.65483 4.6788 9.65483C5.12482 9.65483 5.50692 9.52699 5.82511 9.27131C6.14613 9.01278 6.39045 8.66335 6.55806 8.22301C6.72852 7.78267 6.81374 7.28835 6.81374 6.74006C6.81374 6.19176 6.72994 5.69886 6.56232 5.26136C6.39471 4.82386 6.15181 4.47869 5.83363 4.22585C5.51545 3.97017 5.1305 3.84233 4.6788 3.84233C4.23278 3.84233 3.85067 3.96875 3.53249 4.22159C3.21715 4.47159 2.97425 4.81534 2.8038 5.25284C2.63619 5.6875 2.55238 6.18324 2.55238 6.74006ZM11.5641 10.1364C11.0243 10.1364 10.5442 9.99148 10.1238 9.7017C9.7033 9.40909 9.37234 9.0071 9.13086 8.49574C8.88938 7.98437 8.76864 7.40199 8.76864 6.74858C8.76864 6.09233 8.88938 5.50994 9.13086 5.00142C9.37234 4.49006 9.7033 4.08807 10.1238 3.79545C10.5442 3.50284 11.0243 3.35653 11.5641 3.35653C12.1039 3.35653 12.584 3.50284 13.0044 3.79545C13.4249 4.08807 13.7559 4.49006 13.9973 5.00142C14.2388 5.51278 14.3596 6.09517 14.3596 6.74858C14.3596 7.40199 14.2388 7.98437 13.9973 8.49574C13.7559 9.0071 13.4249 9.40909 13.0044 9.7017C12.584 9.99148 12.1039 10.1364 11.5641 10.1364ZM11.5641 9.65483C12.0215 9.65483 12.4206 9.52557 12.7615 9.26705C13.1053 9.00852 13.3709 8.65909 13.5584 8.21875C13.7488 7.77841 13.8439 7.28835 13.8439 6.74858C13.8439 6.20881 13.7488 5.72017 13.5584 5.28267C13.3681 4.84233 13.1025 4.4929 12.7615 4.23438C12.4206 3.97301 12.0215 3.84233 11.5641 3.84233C11.1067 3.84233 10.7076 3.97301 10.3667 4.23438C10.0257 4.4929 9.76012 4.84233 9.56978 5.28267C9.37944 5.72017 9.28427 6.20881 9.28427 6.74858C9.28427 7.28835 9.37802 7.77841 9.56552 8.21875C9.75586 8.65909 10.0215 9.00852 10.3624 9.26705C10.7061 9.52557 11.1067 9.65483 11.5641 9.65483ZM17.3553 10L15.3951 3.45455H15.9405L17.628 9.23722H17.6749L19.3667 3.45455H19.9078L21.5953 9.23295H21.638L23.3255 3.45455H23.8709L21.9107 10H21.3311L19.6607 4.30256H19.6053L17.9348 10H17.3553ZM27.8201 10.1364C27.2292 10.1364 26.715 9.99006 26.2775 9.69744C25.84 9.40483 25.502 9.00426 25.2633 8.49574C25.0247 7.98722 24.9054 7.40767 24.9054 6.7571C24.9054 6.10369 25.0247 5.52131 25.2633 5.00994C25.5048 4.49858 25.8358 4.09517 26.2562 3.79972C26.6767 3.50426 27.1568 3.35653 27.6966 3.35653C28.063 3.35653 28.4096 3.4304 28.7363 3.57812C29.0659 3.72301 29.3556 3.93324 29.6056 4.20881C29.8585 4.48437 30.0559 4.81676 30.198 5.20597C30.3429 5.59517 30.4153 6.03267 30.4153 6.51847V6.84233H25.2335V6.36932H29.8954C29.8954 5.89489 29.7988 5.46733 29.6056 5.08665C29.4125 4.70597 29.1497 4.40341 28.8173 4.17898C28.4849 3.95455 28.1113 3.84233 27.6966 3.84233C27.2619 3.84233 26.8741 3.96449 26.5332 4.20881C26.1951 4.45028 25.9267 4.77699 25.7278 5.18892C25.5318 5.60085 25.4295 6.06108 25.421 6.5696V6.78267C25.421 7.32812 25.5162 7.81818 25.7065 8.25284C25.8997 8.68466 26.1752 9.02699 26.5332 9.27983C26.8912 9.52983 27.3201 9.65483 27.8201 9.65483C28.1781 9.65483 28.4835 9.59517 28.7363 9.47585C28.992 9.35369 29.2008 9.20597 29.3627 9.03267C29.5247 8.85937 29.6468 8.69176 29.7292 8.52983L30.2022 8.72159C30.1028 8.94034 29.948 9.15909 29.7377 9.37784C29.5304 9.59375 29.2662 9.77415 28.9451 9.91903C28.627 10.0639 28.252 10.1364 27.8201 10.1364ZM32.2051 10V3.45455H32.7122V4.47727H32.7591C32.9011 4.14205 33.1412 3.87358 33.4792 3.67188C33.8173 3.46733 34.2022 3.36506 34.6341 3.36506C34.6795 3.36506 34.725 3.36506 34.7704 3.36506C34.8159 3.36506 34.8585 3.36648 34.8983 3.36932V3.89347C34.8642 3.89062 34.823 3.88636 34.7747 3.88068C34.7292 3.87216 34.6724 3.8679 34.6042 3.8679C34.2406 3.8679 33.9167 3.94602 33.6326 4.10227C33.3514 4.25852 33.1298 4.47443 32.9679 4.75C32.8059 5.02273 32.725 5.33523 32.725 5.6875V10H32.2051ZM38.6483 10.1364C38.0574 10.1364 37.5431 9.99006 37.1056 9.69744C36.6681 9.40483 36.3301 9.00426 36.0914 8.49574C35.8528 7.98722 35.7335 7.40767 35.7335 6.7571C35.7335 6.10369 35.8528 5.52131 36.0914 5.00994C36.3329 4.49858 36.6639 4.09517 37.0843 3.79972C37.5048 3.50426 37.9849 3.35653 38.5247 3.35653C38.8912 3.35653 39.2377 3.4304 39.5645 3.57812C39.894 3.72301 40.1838 3.93324 40.4338 4.20881C40.6866 4.48437 40.8841 4.81676 41.0261 5.20597C41.171 5.59517 41.2434 6.03267 41.2434 6.51847V6.84233H36.0616V6.36932H40.7235C40.7235 5.89489 40.627 5.46733 40.4338 5.08665C40.2406 4.70597 39.9778 4.40341 39.6454 4.17898C39.313 3.95455 38.9395 3.84233 38.5247 3.84233C38.09 3.84233 37.7022 3.96449 37.3613 4.20881C37.0233 4.45028 36.7548 4.77699 36.5559 5.18892C36.3599 5.60085 36.2576 6.06108 36.2491 6.5696V6.78267C36.2491 7.32812 36.3443 7.81818 36.5346 8.25284C36.7278 8.68466 37.0034 9.02699 37.3613 9.27983C37.7193 9.52983 38.1483 9.65483 38.6483 9.65483C39.0062 9.65483 39.3116 9.59517 39.5645 9.47585C39.8201 9.35369 40.0289 9.20597 40.1909 9.03267C40.3528 8.85937 40.475 8.69176 40.5574 8.52983L41.0304 8.72159C40.9309 8.94034 40.7761 9.15909 40.5659 9.37784C40.3585 9.59375 40.0943 9.77415 39.7733 9.91903C39.4551 10.0639 39.0801 10.1364 38.6483 10.1364ZM45.2789 10.1364C44.7534 10.1364 44.2946 9.99148 43.9025 9.7017C43.5105 9.41193 43.2065 9.01278 42.9906 8.50426C42.7775 7.9929 42.671 7.40625 42.671 6.74432C42.671 6.08807 42.7789 5.50568 42.9949 4.99716C43.2136 4.4858 43.519 4.08523 43.911 3.79545C44.3031 3.50284 44.7605 3.35653 45.2832 3.35653C45.6582 3.35653 45.9835 3.42898 46.2591 3.57386C46.5375 3.71591 46.7704 3.90483 46.9579 4.14062C47.1483 4.37642 47.2931 4.63494 47.3926 4.91619H47.4437V1.27273H47.9593V10H47.4565V8.57244H47.3926C47.2875 8.85369 47.1412 9.11364 46.9537 9.35227C46.7662 9.58807 46.5332 9.77841 46.2548 9.9233C45.9764 10.0653 45.6511 10.1364 45.2789 10.1364ZM45.3258 9.65483C45.769 9.65483 46.1483 9.52841 46.4636 9.27557C46.7818 9.01989 47.0247 8.6733 47.1923 8.2358C47.3627 7.79545 47.448 7.29687 47.448 6.74006C47.448 6.18324 47.3627 5.6875 47.1923 5.25284C47.0247 4.81534 46.7818 4.47159 46.4636 4.22159C46.1483 3.96875 45.769 3.84233 45.3258 3.84233C44.877 3.84233 44.492 3.97017 44.171 4.22585C43.8528 4.47869 43.6085 4.82386 43.438 5.26136C43.2704 5.69886 43.1866 6.19176 43.1866 6.74006C43.1866 7.28835 43.2704 7.78267 43.438 8.22301C43.6085 8.66335 43.8528 9.01278 44.171 9.27131C44.492 9.52699 44.877 9.65483 45.3258 9.65483ZM53.8571 10V1.27273H54.3727V4.91619H54.4238C54.5261 4.63494 54.671 4.37642 54.8585 4.14062C55.046 3.90483 55.2789 3.71591 55.5574 3.57386C55.8358 3.42898 56.161 3.35653 56.5332 3.35653C57.0588 3.35653 57.5176 3.50284 57.9096 3.79545C58.3017 4.08523 58.6056 4.4858 58.8216 4.99716C59.0375 5.50568 59.1454 6.08807 59.1454 6.74432C59.1454 7.40625 59.0375 7.9929 58.8216 8.50426C58.6056 9.01278 58.3031 9.41193 57.9139 9.7017C57.5247 9.99148 57.0659 10.1364 56.5375 10.1364C56.1653 10.1364 55.84 10.0653 55.5616 9.9233C55.2832 9.77841 55.0502 9.58807 54.8627 9.35227C54.6752 9.11364 54.5289 8.85369 54.4238 8.57244H54.3642V10H53.8571ZM54.3684 6.74006C54.3684 7.29687 54.4522 7.79545 54.6199 8.2358C54.7903 8.6733 55.0346 9.01989 55.3528 9.27557C55.671 9.52841 56.0517 9.65483 56.4949 9.65483C56.9437 9.65483 57.3272 9.52699 57.6454 9.27131C57.9636 9.01278 58.2065 8.66335 58.3741 8.22301C58.5446 7.78267 58.6298 7.28835 58.6298 6.74006C58.6298 6.19176 58.5446 5.69886 58.3741 5.26136C58.2065 4.82386 57.9636 4.47869 57.6454 4.22585C57.3272 3.97017 56.9437 3.84233 56.4949 3.84233C56.0517 3.84233 55.671 3.96875 55.3528 4.22159C55.0346 4.47159 54.7903 4.81534 54.6199 5.25284C54.4522 5.6875 54.3684 6.18324 54.3684 6.74006ZM61.1227 12.4545C60.992 12.4545 60.8627 12.4403 60.7349 12.4119C60.6071 12.3835 60.492 12.3466 60.3897 12.3011L60.5431 11.8452C60.8102 11.9474 61.0517 11.9844 61.2676 11.956C61.4863 11.9276 61.6795 11.8281 61.8471 11.6577C62.0147 11.4872 62.1568 11.2372 62.2733 10.9077L62.5716 10.0895L60.1724 3.45455H60.7306L62.8102 9.33097H62.8528L64.9324 3.45455H65.4906L62.7292 11.1122C62.6241 11.4077 62.492 11.6548 62.3329 11.8537C62.1738 12.0526 61.992 12.2017 61.7875 12.3011C61.5858 12.4034 61.3642 12.4545 61.1227 12.4545Z" fill="white"/>
<path d="M115.628 44.9901V42.4545H127.574V44.9901H123.121V57H120.081V44.9901H115.628ZM130.271 57H126.976L131.997 42.4545H135.96L140.974 57H137.679L134.036 45.7784H133.922L130.271 57ZM130.065 51.2827H137.849V53.6832H130.065V51.2827ZM154.875 47.5469H151.765C151.708 47.1444 151.592 46.7869 151.417 46.4744C151.241 46.1572 151.016 45.8873 150.742 45.6648C150.467 45.4422 150.15 45.2718 149.79 45.1534C149.435 45.035 149.049 44.9759 148.632 44.9759C147.88 44.9759 147.224 45.1629 146.665 45.5369C146.106 45.9062 145.673 46.446 145.365 47.1562C145.058 47.8617 144.904 48.7187 144.904 49.7273C144.904 50.7642 145.058 51.6354 145.365 52.3409C145.678 53.0464 146.114 53.5791 146.672 53.9389C147.231 54.2988 147.877 54.4787 148.611 54.4787C149.023 54.4787 149.404 54.4242 149.755 54.3153C150.11 54.2064 150.425 54.0478 150.699 53.8395C150.974 53.6264 151.201 53.3684 151.381 53.0653C151.566 52.7623 151.694 52.4167 151.765 52.0284L154.875 52.0426C154.795 52.7102 154.594 53.3542 154.272 53.9744C153.954 54.59 153.526 55.1416 152.986 55.6293C152.451 56.1122 151.812 56.4957 151.069 56.7798C150.33 57.0592 149.494 57.1989 148.561 57.1989C147.264 57.1989 146.104 56.9053 145.081 56.3182C144.063 55.7311 143.258 54.8812 142.667 53.7685C142.079 52.6558 141.786 51.3087 141.786 49.7273C141.786 48.1411 142.084 46.7917 142.681 45.679C143.277 44.5663 144.087 43.7187 145.11 43.1364C146.132 42.5492 147.283 42.2557 148.561 42.2557C149.404 42.2557 150.185 42.3741 150.905 42.6108C151.63 42.8475 152.271 43.1932 152.83 43.6477C153.389 44.0975 153.843 44.6491 154.194 45.3026C154.549 45.956 154.776 46.7041 154.875 47.5469ZM161.953 57.2131C160.85 57.2131 159.895 56.9787 159.091 56.5099C158.29 56.0365 157.672 55.3783 157.237 54.5355C156.801 53.688 156.583 52.7055 156.583 51.5881C156.583 50.4612 156.801 49.4763 157.237 48.6335C157.672 47.786 158.29 47.1278 159.091 46.6591C159.895 46.1856 160.85 45.9489 161.953 45.9489C163.056 45.9489 164.008 46.1856 164.808 46.6591C165.613 47.1278 166.233 47.786 166.669 48.6335C167.104 49.4763 167.322 50.4612 167.322 51.5881C167.322 52.7055 167.104 53.688 166.669 54.5355C166.233 55.3783 165.613 56.0365 164.808 56.5099C164.008 56.9787 163.056 57.2131 161.953 57.2131ZM161.967 54.8693C162.469 54.8693 162.888 54.7273 163.224 54.4432C163.56 54.1544 163.814 53.7614 163.984 53.2642C164.159 52.767 164.247 52.2012 164.247 51.5668C164.247 50.9323 164.159 50.3665 163.984 49.8693C163.814 49.3722 163.56 48.9792 163.224 48.6903C162.888 48.4015 162.469 48.2571 161.967 48.2571C161.46 48.2571 161.034 48.4015 160.689 48.6903C160.348 48.9792 160.09 49.3722 159.914 49.8693C159.744 50.3665 159.659 50.9323 159.659 51.5668C159.659 52.2012 159.744 52.767 159.914 53.2642C160.09 53.7614 160.348 54.1544 160.689 54.4432C161.034 54.7273 161.46 54.8693 161.967 54.8693Z" fill="white"/>
<path d="M163.616 32.2599H160.89V24.2846H163.622C166.473 24.2846 167.769 24.5429 167.769 28.2921C167.769 31.7417 166.493 32.266 163.622 32.266L163.616 32.2599ZM164 35.2571C168.807 35.2571 171 33.7424 171 28.2982C171 22.4352 168.587 21.2996 164 21.2996H157.799V35.2571H164ZM155.306 32.1667H147.424V21.2996H144.334V35.2571H155.3L155.306 32.1667ZM134.509 32.5656C131.558 32.5656 130.421 31.968 130.421 28.2982C130.421 24.4894 131.558 23.9911 134.509 23.9911C137.461 23.9911 138.616 24.5093 138.616 28.2982C138.616 31.9664 137.461 32.5656 134.509 32.5656ZM134.509 35.5567C139.513 35.5567 141.846 33.9412 141.846 28.2982C141.846 22.4352 139.293 21 134.509 21C129.725 21 127.191 22.4352 127.191 28.2982C127.191 33.9412 129.504 35.5567 134.509 35.5567ZM124.698 35.251V21.2935H121.609V26.7438H114.629V21.2935H111.538V35.251H114.629V29.8083H121.609V35.251H124.698ZM102.325 35.5567C107.41 35.5567 108.825 33.9213 108.825 31.1105C108.825 28.5382 107.45 27.641 104.717 27.1213L100.896 26.3846C99.6613 26.1447 99.2011 25.7855 99.2011 25.0671C99.2011 24.39 99.7208 23.7924 102.333 23.7924C104.427 23.7924 105.39 24.2097 105.503 26.0652H108.694C108.553 22.2961 106.58 21 102.293 21C97.5673 21 95.9915 22.7944 95.9915 25.1268C95.9915 27.4591 97.1287 28.6421 99.6 29.1343L103.708 29.9718C104.764 30.1904 105.582 30.331 105.582 31.2878C105.582 32.2446 104.971 32.7627 102.313 32.7627C100.12 32.7627 99.1033 32.2446 99.0223 30.3509H95.6521C95.6919 34.1398 97.6666 35.5475 102.333 35.5475L102.325 35.5567ZM93.3991 32.1575H84.1126V29.8083H93.1806V26.7438H84.1126V24.3839H93.2832V21.2935H81.022V35.251H93.3855L93.3991 32.1575ZM62.1782 35.251V21.2935H59.0877V26.7438H52.1091V21.2935H49.0186V35.251H52.1091V29.8083H59.0877V35.251H62.1782ZM46.8238 21.2935H34.3809V24.3839H39.0472V35.251H42.1314V24.3839H46.8238V21.2935ZM68.6586 27.3353V24.3839H73.3113C74.4484 24.3839 75.1254 25.061 75.1254 25.8787C75.1254 26.6964 74.4484 27.3353 73.3113 27.3353H68.6586ZM68.6586 30.4258H72.6067L75.1788 35.251H78.7295L75.7981 29.8679C77.4136 29.0701 78.2114 27.4943 78.2114 25.839C78.2114 23.4669 76.53 21.2935 73.2454 21.2935H65.5684V35.251H68.6586V30.4258Z" fill="white"/>
<path d="M21.9378 21.2935H14.9591V23.6197H21.9378V21.2935ZM10.3066 23.6197H7.98029V25.9459H10.3066V23.6197ZM7.98029 35.251H10.3066V28.2722H7.98029V35.251ZM12.6328 23.6197V25.9459H14.9591V23.6197H12.6328ZM12.6328 35.251H14.9591V28.2722H12.6328V35.251ZM12.6328 21.2935H10.3066V23.6197H12.6328V21.2935ZM1 21.2935V23.6197H7.98029V21.2935H1ZM21.9393 28.2722V25.9459H14.9591V28.2722H21.9393ZM10.3081 25.9459V28.2722H12.6328V25.9459H10.3081ZM1.00152 25.9459V28.2722H7.98183V25.9459H1.00152Z" fill="white"/>
</svg>
