<svg width="150" height="150" viewBox="0 0 150 150" fill="none" xmlns="http://www.w3.org/2000/svg">
<circle cx="75" cy="75" r="75" fill="url(#paint0_radial_492_568)"/>
<path d="M75 100C79.3137 99.9927 83.5521 98.8694 87.3031 96.7392C91.0541 94.6091 94.1901 91.5446 96.4063 87.8438L91.0625 84.7188C89.3948 87.4881 87.0395 89.7793 84.225 91.3698C81.4106 92.9604 78.2328 93.7962 75 93.7962C71.7673 93.7962 68.5894 92.9604 65.775 91.3698C62.9606 89.7793 60.6052 87.4881 58.9375 84.7188L53.5938 87.8438C55.8099 91.5446 58.9459 94.6091 62.697 96.7392C66.448 98.8694 70.6864 99.9927 75 100Z" fill="white"/>
<path d="M75 31.25C66.3471 31.25 57.8885 33.8159 50.6938 38.6232C43.4992 43.4305 37.8916 50.2633 34.5803 58.2576C31.269 66.2519 30.4026 75.0485 32.0907 83.5352C33.7788 92.0219 37.9455 99.8174 44.0641 105.936C50.1826 112.054 57.9782 116.221 66.4648 117.909C74.9515 119.597 83.7481 118.731 91.7424 115.42C99.7367 112.108 106.57 106.501 111.377 99.3062C116.184 92.1115 118.75 83.6529 118.75 75C118.75 63.3968 114.141 52.2688 105.936 44.0641C97.7312 35.8594 86.6032 31.25 75 31.25ZM75 37.5C82.1702 37.5112 89.1869 39.5778 95.2185 43.4548C101.25 47.3319 106.044 52.8569 109.031 59.375H103.125C103.125 58.5462 102.796 57.7513 102.21 57.1653C101.624 56.5792 100.829 56.25 100 56.25H50C49.1712 56.25 48.3764 56.5792 47.7903 57.1653C47.2043 57.7513 46.875 58.5462 46.875 59.375H40.9688C43.9563 52.8569 48.75 47.3319 54.7816 43.4548C60.8132 39.5778 67.8298 37.5112 75 37.5ZM75 112.5C65.0544 112.5 55.5161 108.549 48.4835 101.517C41.4509 94.4839 37.5 84.9456 37.5 75C37.5146 71.8344 37.9347 68.6838 38.75 65.625H46.875V71.875C46.875 73.5326 47.5335 75.1223 48.7056 76.2944C49.8777 77.4665 51.4674 78.125 53.125 78.125H63.4688C64.9623 78.1455 66.4137 77.6304 67.5602 76.673C68.7067 75.7157 69.4725 74.3794 69.7188 72.9062L71.3438 62.5H78.6563L80.375 72.9062C80.6213 74.3794 81.3871 75.7157 82.5336 76.673C83.6801 77.6304 85.1315 78.1455 86.625 78.125H96.875C98.5326 78.125 100.122 77.4665 101.294 76.2944C102.467 75.1223 103.125 73.5326 103.125 71.875V65.625H111.25C112.065 68.6838 112.485 71.8344 112.5 75C112.5 84.9456 108.549 94.4839 101.517 101.517C94.4839 108.549 84.9456 112.5 75 112.5Z" fill="white"/>
<defs>
<radialGradient id="paint0_radial_492_568" cx="0" cy="0" r="1" gradientUnits="userSpaceOnUse" gradientTransform="translate(75 75) rotate(90) scale(75)">
<stop stop-color="#2B4D7E" stop-opacity="0.5"/>
<stop offset="1" stop-color="#2B4D7E" stop-opacity="0"/>
</radialGradient>
</defs>
</svg>
