<svg width="170" height="15" viewBox="0 0 170 15" fill="none" xmlns="http://www.w3.org/2000/svg">
<path d="M162.616 11.2599H159.89V3.28459H162.622C165.473 3.28459 166.769 3.54289 166.769 7.2921C166.769 10.7417 165.493 11.266 162.622 11.266L162.616 11.2599ZM163 14.2571C167.807 14.2571 170 12.7424 170 7.29821C170 1.43521 167.587 0.299584 163 0.299584H156.799V14.2571H163ZM154.306 11.1667H146.424V0.299584H143.334V14.2571H154.3L154.306 11.1667ZM133.509 11.5656C130.558 11.5656 129.421 10.968 129.421 7.29821C129.421 3.4894 130.558 2.99113 133.509 2.99113C136.461 2.99113 137.616 3.50925 137.616 7.29821C137.616 10.9664 136.461 11.5656 133.509 11.5656ZM133.509 14.5567C138.513 14.5567 140.846 12.9412 140.846 7.29821C140.846 1.43521 138.293 0 133.509 0C128.725 0 126.191 1.43521 126.191 7.29821C126.191 12.9412 128.504 14.5567 133.509 14.5567ZM123.698 14.251V0.293483H120.609V5.74382H113.629V0.293483H110.538V14.251H113.629V8.8083H120.609V14.251H123.698ZM101.325 14.5567C106.41 14.5567 107.825 12.9213 107.825 10.1105C107.825 7.53817 106.45 6.641 103.717 6.12133L99.8962 5.38465C98.6613 5.14469 98.2011 4.78548 98.2011 4.06714C98.2011 3.39004 98.7208 2.79242 101.333 2.79242C103.427 2.79242 104.39 3.2097 104.503 5.06518H107.694C107.553 1.29611 105.58 0 101.293 0C96.5673 0 94.9915 1.79438 94.9915 4.12676C94.9915 6.45913 96.1287 7.64211 98.6 8.13427L102.708 8.97183C103.764 9.19039 104.582 9.331 104.582 10.2878C104.582 11.2446 103.971 11.7627 101.313 11.7627C99.1196 11.7627 98.1033 11.2446 98.0223 9.35088H94.6521C94.6919 13.1398 96.6666 14.5475 101.333 14.5475L101.325 14.5567ZM92.3991 11.1575H83.1126V8.8083H92.1806V5.74382H83.1126V3.38394H92.2832V0.293483H80.022V14.251H92.3855L92.3991 11.1575ZM61.1782 14.251V0.293483H58.0877V5.74382H51.1091V0.293483H48.0186V14.251H51.1091V8.8083H58.0877V14.251H61.1782ZM45.8238 0.293483H33.3809V3.38394H38.0472V14.251H41.1314V3.38394H45.8238V0.293483ZM67.6586 6.33531V3.38394H72.3113C73.4484 3.38394 74.1254 4.06103 74.1254 4.87873C74.1254 5.69644 73.4484 6.33531 72.3113 6.33531H67.6586ZM67.6586 9.42577H71.6067L74.1788 14.251H77.7295L74.7981 8.86792C76.4136 8.07007 77.2114 6.49426 77.2114 4.839C77.2114 2.46689 75.53 0.293483 72.2454 0.293483H64.5684V14.251H67.6586V9.42577Z" fill="white"/>
<path d="M20.9378 0.293457H13.9591V2.6197H20.9378V0.293457ZM9.30656 2.6197H6.98029V4.94595H9.30656V2.6197ZM6.98029 14.251H9.30656V7.27223H6.98029V14.251ZM11.6328 2.6197V4.94595H13.9591V2.6197H11.6328ZM11.6328 14.251H13.9591V7.27223H11.6328V14.251ZM11.6328 0.293457H9.30656V2.6197H11.6328V0.293457ZM0 0.293457V2.6197H6.98029V0.293457H0ZM20.9393 7.27223V4.94595H13.9591V7.27223H20.9393ZM9.30808 4.94595V7.27223H11.6328V4.94595H9.30808ZM0.00151813 4.94595V7.27223H6.98183V4.94595H0.00151813Z" fill="white"/>
</svg>
